<?xml version="1.0" standalone="no"?>
<!DOCTYPE svg PUBLIC "-//W3C//DTD SVG 20010904//EN"
 "http://www.w3.org/TR/2001/REC-SVG-20010904/DTD/svg10.dtd">
<svg version="1.0" xmlns="http://www.w3.org/2000/svg"
 width="1280.000000pt" height="1060.000000pt" viewBox="0 0 1280.000000 1060.000000"
 preserveAspectRatio="xMidYMid meet">
<g transform="translate(0.000000,1060.000000) scale(0.100000,-0.100000)"
fill="#000000" stroke="none">
<path d="M7476 10544 c-10 -79 -7 -100 24 -143 36 -49 45 -86 31 -123 -14 -38
-36 -35 -47 5 -7 23 -20 37 -47 51 -61 29 -61 8 -2 -84 39 -60 44 -103 20
-150 -20 -39 -41 -38 -49 2 -8 40 -23 58 -50 58 -11 0 -28 4 -36 10 -12 8 -11
14 8 48 12 21 19 42 15 46 -14 14 -78 5 -112 -16 -35 -23 -126 -49 -135 -40
-3 2 -2 26 1 52 5 44 3 50 -29 86 l-35 38 -17 -51 c-17 -51 -17 -52 7 -100 26
-52 25 -66 -6 -100 -34 -38 -57 -25 -57 32 0 34 -48 89 -65 75 -25 -21 -27
-66 -6 -109 29 -56 26 -78 -16 -140 -71 -101 -73 -104 -73 -158 0 -28 -4 -54
-8 -57 -16 -9 -52 25 -82 77 -35 62 -37 84 -9 132 15 25 19 44 15 68 -7 35
-41 85 -51 75 -4 -3 -9 -34 -12 -67 -5 -50 -9 -61 -24 -61 -22 0 -69 66 -69
96 0 12 7 28 17 35 26 22 44 75 34 101 -9 24 -78 95 -84 87 -10 -12 -27 -91
-27 -123 0 -43 -8 -45 -49 -10 -39 32 -39 48 -1 91 24 27 30 43 30 79 0 25 -7
59 -16 76 -19 37 -28 30 -64 -45 -14 -29 -32 -52 -40 -52 -17 0 -60 71 -60
102 0 14 -13 29 -36 43 -29 18 -46 22 -94 18 -33 -2 -63 -7 -67 -11 -9 -10 29
-60 58 -74 13 -7 42 -15 63 -18 45 -7 91 -48 102 -89 10 -41 -9 -52 -37 -22
-31 32 -71 47 -109 40 -51 -11 -55 -28 -14 -63 47 -42 73 -51 144 -51 52 0 64
-4 92 -29 41 -36 32 -47 -26 -31 -39 11 -49 10 -92 -10 l-49 -21 30 -25 c42
-34 65 -38 138 -21 78 18 110 8 152 -47 21 -28 25 -40 16 -49 -9 -9 -19 -8
-44 2 -17 7 -39 15 -47 17 -18 6 -130 -73 -130 -91 0 -21 107 -26 154 -8 23 8
57 17 77 20 33 4 37 2 49 -27 7 -17 35 -61 61 -97 81 -109 86 -173 24 -260
-19 -26 -45 -67 -57 -90 -14 -27 -29 -43 -40 -43 -10 0 -18 3 -18 8 -1 4 -5
27 -9 51 -10 49 -1 84 29 116 25 27 35 98 20 136 -7 16 -16 29 -20 29 -13 0
-59 -96 -54 -116 2 -10 0 -26 -5 -34 -8 -12 -13 -12 -30 4 -12 11 -21 25 -21
33 0 29 -42 94 -66 103 -33 13 -111 13 -119 0 -12 -19 63 -87 109 -99 24 -6
49 -17 56 -26 17 -21 5 -49 -18 -40 -38 16 -50 16 -65 0 -16 -16 -40 -85 -32
-93 5 -5 66 11 113 30 32 12 35 11 53 -11 11 -13 19 -39 19 -60 0 -20 12 -60
25 -90 39 -83 22 -98 -50 -46 -16 13 -82 51 -145 86 -118 66 -187 125 -210
178 -11 29 -10 33 19 66 21 24 31 46 31 68 0 35 -40 113 -55 110 -6 -1 -17
-32 -26 -69 -8 -37 -21 -70 -28 -72 -18 -6 -61 38 -61 62 0 12 7 40 15 64 8
23 12 54 9 67 -6 25 -76 95 -94 95 -6 0 -10 -30 -10 -70 0 -63 -2 -70 -19 -70
-11 0 -30 14 -42 31 -33 47 -80 63 -140 49 -27 -7 -49 -16 -49 -21 0 -17 89
-69 118 -69 39 0 59 -23 37 -42 -41 -32 -65 -58 -65 -68 0 -15 43 -12 114 7
61 16 64 16 97 -3 20 -12 34 -28 34 -40 0 -16 -6 -19 -45 -16 -36 2 -55 -4
-93 -28 -26 -17 -45 -35 -42 -40 8 -14 119 -13 165 1 61 18 82 7 134 -72 26
-39 46 -78 44 -87 -2 -13 -19 -18 -68 -23 -36 -4 -72 -9 -81 -13 -21 -9 -49
19 -49 49 0 30 -35 55 -77 55 -38 0 -83 -19 -83 -34 0 -19 64 -63 102 -70 36
-6 52 -24 40 -42 -4 -5 -33 -27 -65 -48 l-58 -39 -22 22 c-29 27 -86 28 -118
2 -20 -16 -22 -21 -9 -35 7 -10 28 -23 47 -31 18 -8 33 -19 33 -26 0 -6 -15
-29 -32 -49 -18 -21 -41 -49 -50 -62 -17 -22 -19 -22 -31 -6 -8 10 -17 49 -21
87 -3 37 -15 121 -26 184 -11 64 -17 123 -14 132 4 9 19 15 40 15 27 0 36 6
49 30 15 30 21 110 8 110 -5 0 -16 -14 -25 -30 -10 -18 -25 -30 -38 -30 -25 0
-25 15 1 79 19 44 20 55 9 81 -14 34 -64 80 -86 80 -23 0 -18 -97 7 -144 21
-40 22 -87 1 -94 -7 -2 -19 12 -27 31 -20 49 -59 77 -106 77 -37 0 -38 -1 -29
-26 14 -36 12 -54 -4 -54 -24 0 -53 47 -82 133 -31 92 -36 184 -13 232 22 47
44 43 72 -12 18 -34 36 -54 61 -66 33 -15 86 -23 86 -13 0 2 -13 33 -29 69
-18 39 -41 73 -60 86 -36 26 -39 41 -13 64 29 27 50 20 71 -21 15 -29 31 -43
63 -55 42 -17 98 -23 98 -11 0 13 -25 51 -53 81 -39 42 -31 63 23 63 64 0 118
33 142 86 20 47 19 65 -4 46 -7 -6 -34 -16 -59 -22 -32 -8 -59 -25 -85 -51
-37 -38 -76 -50 -89 -28 -4 6 3 21 15 34 25 27 39 121 22 151 -10 17 -11 17
-12 2 0 -10 -15 -35 -33 -55 -52 -59 -67 -85 -67 -118 0 -25 -9 -36 -50 -63
-27 -19 -54 -31 -60 -27 -5 3 -10 25 -10 49 0 62 -18 104 -51 121 -52 27 -57
22 -51 -52 4 -55 11 -76 36 -111 l30 -43 -28 -50 c-15 -28 -31 -71 -35 -97
-10 -72 -29 -66 -97 28 -95 131 -91 119 -60 165 28 41 29 81 5 127 -15 27 -47
5 -70 -47 -24 -53 -33 -60 -53 -39 -26 26 -28 57 -7 111 16 41 18 58 10 93
-19 85 -39 96 -73 39 -14 -24 -17 -43 -13 -80 6 -45 4 -49 -15 -49 -11 0 -48
17 -82 37 -43 27 -72 37 -98 37 -36 -1 -128 -47 -128 -63 0 -24 132 -43 145
-21 11 18 86 11 121 -11 61 -37 39 -72 -25 -39 -22 11 -53 20 -68 20 -28 -1
-83 -40 -83 -59 0 -20 83 -33 163 -27 84 7 127 -6 147 -43 15 -28 -3 -34 -46
-16 -43 18 -97 20 -125 4 -28 -14 -13 -30 60 -63 52 -23 65 -25 102 -17 55 12
96 -5 145 -63 47 -55 51 -75 20 -121 -15 -22 -26 -52 -26 -72 0 -18 -6 -36
-13 -39 -7 -2 -57 18 -110 47 -111 58 -201 76 -226 45 -17 -21 -31 -20 -47 1
-11 17 -16 16 -58 -15 -26 -17 -51 -32 -56 -32 -16 0 -11 31 11 67 26 42 23
116 -7 156 -22 31 -44 35 -44 8 0 -11 -8 -33 -17 -49 -17 -29 -17 -33 0 -79
20 -55 21 -86 7 -114 -17 -31 -38 -22 -64 30 -23 45 -89 102 -102 88 -10 -10
8 -95 26 -125 10 -16 35 -38 57 -48 44 -22 59 -54 49 -107 -8 -43 -33 -49 -73
-17 -48 38 -146 20 -174 -31 -8 -16 -3 -20 33 -30 24 -7 78 -11 120 -10 71 2
78 0 91 -21 90 -151 89 -148 54 -148 -13 0 -48 8 -78 19 -30 10 -71 21 -93 25
-27 5 -55 22 -90 55 -28 27 -64 55 -81 64 -42 21 -95 31 -95 18 0 -18 61 -81
85 -87 24 -6 39 -29 29 -45 -3 -5 -24 -9 -47 -9 -23 0 -59 -5 -80 -11 -33 -9
-44 -7 -78 10 -58 31 -123 28 -168 -6 l-36 -28 40 -7 c79 -13 110 -24 113 -39
1 -8 -27 -51 -64 -95 -70 -83 -94 -127 -94 -169 0 -21 5 -25 31 -25 32 0 69
15 81 34 4 6 8 37 8 69 0 62 21 121 46 131 21 8 29 -20 15 -51 -9 -20 -9 -35
4 -74 9 -27 22 -49 29 -49 20 0 56 86 66 158 10 75 26 94 91 114 29 8 43 8 51
0 8 -8 -2 -24 -40 -60 -42 -38 -52 -54 -52 -80 0 -20 5 -32 13 -32 17 0 57 43
86 92 52 87 108 98 243 47 67 -25 97 -31 158 -30 69 0 77 -2 105 -28 16 -16
40 -32 53 -36 45 -13 20 -38 -72 -71 -117 -41 -167 -96 -121 -134 26 -21 60
-2 123 69 65 72 118 103 129 75 4 -10 -6 -26 -26 -45 -32 -29 -78 -116 -67
-127 14 -14 84 41 126 99 54 75 84 98 130 101 29 3 35 0 35 -17 0 -12 -8 -21
-20 -23 -25 -5 -63 -39 -81 -74 -19 -36 -18 -38 11 -38 41 0 91 26 117 60 59
80 157 78 283 -5 59 -40 71 -55 62 -79 -5 -12 -13 -13 -55 -2 -27 8 -69 25
-94 40 -25 14 -55 26 -67 26 -28 0 -61 -54 -61 -102 0 -41 10 -48 31 -22 16
19 63 44 84 44 46 0 -21 -75 -97 -108 -25 -11 -51 -30 -58 -42 -11 -21 -5
-121 9 -148 9 -17 101 79 101 105 0 10 11 42 25 71 20 43 29 52 50 52 30 0 32
-18 5 -53 -11 -14 -20 -37 -20 -51 0 -30 29 -106 40 -106 5 0 20 21 35 46 24
42 27 53 21 106 -5 40 -3 64 5 74 19 23 71 16 121 -15 50 -32 88 -96 109 -186
23 -96 42 -137 71 -154 15 -9 55 -31 88 -50 69 -40 213 -192 204 -216 -10 -26
-42 -16 -71 23 -15 20 -35 42 -43 49 -23 19 -85 16 -111 -6 -28 -22 -28 -22
31 -41 66 -22 60 -44 -13 -48 -67 -3 -82 5 -104 59 -25 64 -103 100 -156 73
-18 -9 -34 -18 -36 -20 -2 -2 13 -18 33 -37 20 -19 36 -42 36 -52 0 -15 -7
-16 -56 -10 -48 6 -63 3 -109 -20 -44 -21 -125 -92 -113 -99 2 -1 46 1 99 4
85 4 99 8 128 33 35 29 72 42 96 33 25 -9 17 -33 -20 -55 -34 -20 -65 -71 -65
-106 0 -25 86 29 151 95 55 56 99 77 134 64 24 -10 17 -30 -21 -61 -27 -22
-37 -38 -41 -71 -5 -39 -4 -42 18 -42 38 0 84 34 110 81 30 53 65 79 116 86
37 5 45 2 87 -37 25 -23 65 -77 87 -119 23 -42 61 -108 85 -146 69 -112 75
-139 73 -305 -3 -157 6 -206 48 -278 39 -67 29 -76 -73 -68 -56 4 -111 16
-162 35 -42 16 -97 35 -122 42 -34 11 -46 20 -48 37 -2 16 2 22 15 22 37 1
102 39 118 69 l16 31 -48 0 c-27 0 -68 -9 -92 -20 -55 -25 -68 -25 -82 2 -15
28 10 48 63 48 45 0 103 47 114 93 5 24 3 27 -18 27 -13 0 -53 -18 -89 -39
-35 -21 -67 -37 -71 -34 -21 12 -6 71 32 127 31 46 40 68 40 102 0 51 -12 61
-46 39 -40 -26 -61 -71 -68 -146 -9 -86 -24 -96 -69 -48 -31 33 -139 80 -153
67 -6 -7 27 -72 54 -106 12 -16 35 -27 68 -33 56 -10 87 -39 82 -78 -3 -24 -6
-25 -54 -22 -57 3 -109 -15 -139 -48 -16 -19 -17 -24 -5 -31 21 -13 109 -12
170 2 l51 12 56 -56 c32 -32 54 -62 51 -70 -8 -20 -263 -16 -304 5 -60 31
-164 161 -198 246 -9 24 -33 73 -52 109 -60 114 -40 157 49 107 45 -25 53 -26
87 -16 34 10 69 37 59 45 -15 12 -95 36 -119 36 -19 0 -33 7 -40 19 -12 24 -8
27 62 47 98 29 156 94 84 94 -18 0 -47 3 -65 6 -28 6 -36 1 -80 -46 -59 -65
-81 -64 -81 6 0 50 -26 117 -44 111 -6 -2 -15 -27 -20 -56 -8 -48 -7 -58 19
-105 23 -42 27 -59 21 -89 -8 -40 -28 -56 -49 -38 -7 6 -31 42 -52 81 -32 58
-55 84 -132 147 -99 80 -183 178 -183 212 0 20 4 21 56 15 53 -7 56 -6 46 12
-16 29 -53 61 -102 87 -47 25 -62 56 -40 83 20 23 38 16 65 -26 19 -30 35 -42
66 -50 41 -11 69 -8 69 8 0 5 -28 30 -61 56 -54 42 -60 50 -47 63 14 13 21 12
67 -12 55 -28 137 -42 159 -27 8 5 10 19 6 41 -6 27 -15 37 -48 52 -50 23 -68
23 -124 4 -31 -11 -48 -12 -62 -5 -26 14 -25 25 7 67 29 38 36 94 15 115 -27
27 -112 -90 -112 -154 0 -33 -52 -128 -70 -128 -5 0 -23 20 -40 45 -29 42
-114 104 -127 92 -9 -10 6 -70 27 -105 11 -18 34 -41 51 -50 61 -33 79 -52 79
-83 0 -16 7 -46 15 -66 21 -50 9 -59 -57 -38 -118 38 -183 96 -243 215 l-36
71 30 27 c40 36 51 69 41 121 -11 63 -26 73 -56 36 -13 -16 -27 -41 -30 -55
-18 -76 -23 -77 -89 -10 -48 49 -49 51 -37 83 23 64 16 115 -24 163 -37 46
-58 55 -68 28 -11 -30 -6 -57 20 -101 37 -64 17 -81 -53 -43 -21 11 -46 20
-56 20 -10 0 -33 11 -51 25 -50 38 -87 33 -130 -16 -38 -45 -39 -62 -3 -55
130 27 154 29 183 15 42 -21 37 -41 -11 -43 -44 -2 -95 -30 -95 -52 0 -22 50
-28 110 -14 117 27 116 27 167 -24 57 -57 50 -75 -22 -57 -40 10 -52 9 -83 -6
-21 -10 -37 -25 -37 -33 0 -12 21 -16 105 -20 124 -6 143 -15 184 -89 38 -71
31 -86 -40 -77 -77 9 -120 29 -138 64 -25 49 -62 72 -117 72 -26 0 -50 -4 -54
-9 -3 -6 15 -24 40 -41 47 -32 56 -53 29 -64 -30 -11 -129 -6 -174 10 -38 13
-54 14 -103 3 -32 -6 -60 -15 -63 -20 -7 -12 27 -27 85 -40 74 -16 68 -37 -27
-89 -60 -33 -83 -66 -85 -123 -3 -66 13 -77 56 -41 38 32 52 54 62 97 8 38 53
83 68 68 7 -7 7 -18 -1 -36 -14 -30 -16 -81 -4 -89 16 -10 32 11 71 97 34 73
46 90 76 104 26 13 38 14 47 5 8 -8 1 -21 -30 -52 -23 -22 -42 -49 -42 -60 0
-43 70 -12 126 56 l38 46 80 -7 c86 -7 145 -28 199 -69 41 -31 95 -51 166 -60
30 -4 63 -12 73 -17 27 -14 22 -38 -9 -44 -16 -3 -41 -10 -58 -16 -67 -25 -80
-23 -109 15 -65 85 -168 88 -226 6 -26 -36 -21 -47 11 -30 40 22 149 -1 149
-31 0 -5 -19 -21 -42 -36 -24 -15 -60 -40 -81 -56 -36 -28 -40 -29 -77 -17
-71 23 -171 -12 -215 -77 -14 -21 -25 -41 -25 -46 0 -14 81 3 142 30 52 23 78
24 78 4 0 -16 -60 -84 -105 -119 -25 -19 -48 -45 -51 -58 -6 -25 15 -164 26
-164 3 0 23 18 44 39 39 40 39 40 32 103 -7 75 14 131 52 136 21 3 22 1 16
-50 -5 -51 14 -128 34 -128 18 0 42 89 42 160 0 61 5 82 23 114 26 41 98 96
129 96 22 0 23 -27 3 -54 -22 -30 -14 -135 10 -142 16 -5 75 101 84 153 10 50
43 87 90 100 30 8 156 -22 207 -49 55 -29 117 -92 150 -152 15 -28 60 -82 99
-121 74 -72 111 -126 101 -151 -4 -10 -26 -14 -90 -14 -80 0 -90 -2 -161 -40
-42 -22 -82 -40 -89 -40 -7 0 -36 18 -66 40 -29 22 -74 47 -99 56 -69 24 -74
28 -84 65 -12 46 -23 57 -68 69 -32 9 -47 8 -82 -8 -50 -22 -111 -77 -102 -92
8 -13 55 -13 112 1 36 10 47 9 53 -2 11 -16 -4 -36 -33 -45 -12 -4 -39 -18
-59 -30 -28 -18 -52 -24 -93 -24 -35 0 -65 -6 -81 -16 -34 -23 -74 -94 -74
-132 0 -31 13 -42 25 -22 4 6 25 20 48 31 23 12 57 35 75 52 27 27 34 29 42
17 6 -8 8 -19 6 -25 -2 -5 -12 -34 -22 -62 -20 -57 -12 -52 -144 -88 -36 -10
-96 -31 -134 -47 -56 -25 -77 -29 -115 -23 -25 3 -136 9 -247 13 -144 5 -206
11 -217 20 -9 8 -23 36 -32 63 -19 56 -38 71 -113 90 -76 19 -85 4 -38 -59 20
-27 36 -59 36 -70 0 -27 -26 -52 -54 -52 -18 0 -27 10 -40 45 -11 27 -33 56
-56 75 -34 27 -43 29 -84 24 -26 -4 -49 -11 -52 -16 -4 -5 8 -24 25 -42 24
-25 33 -45 37 -78 l4 -46 -55 -7 c-30 -3 -60 -3 -66 1 -21 12 -103 -37 -136
-82 -36 -48 -52 -94 -34 -94 7 0 40 9 75 20 52 17 71 30 105 70 25 30 50 50
63 50 18 0 19 -4 14 -42 -16 -104 -17 -128 -10 -128 25 0 126 95 148 139 25
48 41 61 76 61 31 0 33 -18 6 -65 -19 -32 -26 -58 -26 -98 l0 -55 78 77 c42
43 89 92 103 110 24 28 32 31 82 31 30 0 68 3 86 6 45 9 52 -18 15 -58 -69
-74 -120 -105 -181 -112 l-58 -7 -122 -127 c-71 -73 -151 -168 -188 -224 -65
-98 -66 -98 -108 -99 -99 -2 -166 -59 -175 -149 -3 -38 -1 -50 9 -50 29 1 79
37 108 78 32 43 61 55 61 25 0 -10 -11 -54 -23 -97 l-22 -79 -62 -21 c-90 -31
-133 -78 -133 -146 0 -30 1 -31 33 -25 49 11 63 21 94 67 32 49 59 57 56 18
-5 -80 -18 -150 -36 -185 -16 -32 -19 -52 -14 -110 5 -74 23 -125 42 -125 11
0 68 114 80 160 4 17 -2 44 -19 80 -26 55 -33 127 -20 178 10 37 36 22 56 -32
17 -49 64 -116 86 -124 16 -5 25 41 17 94 -5 35 -17 57 -56 100 -50 55 -50 55
-47 117 3 53 6 62 23 64 14 2 30 -11 52 -41 32 -43 84 -76 121 -76 34 0 36 20
7 50 l-28 29 39 45 c21 24 46 55 56 67 24 35 41 13 49 -64 7 -75 48 -169 92
-214 46 -49 57 -44 57 26 0 82 -12 106 -68 141 -53 32 -72 63 -72 115 0 28 4
35 20 35 11 0 20 -4 20 -9 0 -26 55 -72 106 -88 73 -23 85 -10 46 48 -42 62
-71 86 -118 98 -28 8 -44 19 -52 36 -17 38 -15 110 3 125 17 14 17 14 59 -44
41 -54 126 -88 126 -48 0 37 -40 83 -94 107 -62 28 -86 56 -86 103 0 77 56
126 160 140 61 9 65 11 124 75 64 68 160 125 193 113 16 -7 16 -11 -13 -86
-16 -42 -16 -47 0 -85 l18 -40 19 50 c20 54 50 85 81 85 23 0 22 -12 -10 -120
-19 -65 -19 -65 -63 -73 -24 -5 -53 -10 -64 -12 -29 -6 -56 -57 -62 -121 -5
-50 -4 -54 13 -47 38 13 67 37 90 75 13 21 32 38 40 38 29 0 12 -79 -31 -149
-34 -54 -37 -66 -33 -111 3 -28 8 -53 11 -56 10 -10 86 55 102 86 13 25 13 34
0 70 -18 50 -19 69 -5 104 13 36 34 24 55 -30 15 -39 85 -114 107 -114 11 0
10 63 -3 97 -5 15 -36 51 -67 79 l-57 52 2 59 c1 33 7 72 12 86 18 47 51 29
51 -27 0 -32 73 -96 109 -96 34 0 -11 116 -57 146 -13 8 -30 31 -38 51 -14 31
-13 37 4 66 35 61 241 127 258 83 3 -8 -16 -35 -45 -64 -46 -46 -51 -55 -51
-97 0 -25 2 -45 5 -45 37 0 95 70 95 113 0 20 14 29 33 21 17 -6 33 -64 41
-143 7 -74 23 -88 104 -93 37 -3 74 -7 82 -9 9 -2 16 4 18 17 4 28 -41 81 -86
100 -61 25 -100 62 -113 105 -19 60 -2 69 57 30 61 -40 89 -42 80 -3 -17 69
-19 66 79 73 79 5 99 10 162 43 46 24 92 59 128 98 61 64 141 108 198 108 46
0 130 -43 172 -87 20 -21 55 -69 79 -108 l43 -70 84 -5 c107 -6 113 -21 34
-81 -54 -41 -58 -42 -88 -30 -18 7 -40 15 -49 18 -23 7 -88 -57 -88 -87 0 -25
29 -90 39 -90 4 0 17 18 29 39 20 36 39 51 63 51 30 0 -19 -134 -64 -175 -19
-18 -37 -46 -41 -63 -3 -18 -9 -45 -12 -62 -8 -42 -21 -46 -53 -16 -32 30
-102 43 -145 27 l-29 -11 54 -28 c38 -19 54 -33 54 -47 0 -18 -8 -20 -73 -23
l-73 -3 -39 42 c-35 38 -42 42 -106 49 -38 4 -70 6 -72 5 -5 -4 22 -71 36 -87
8 -10 28 -18 44 -18 36 0 68 -16 68 -34 0 -18 -50 -61 -100 -86 -27 -14 -42
-31 -54 -61 -9 -23 -15 -44 -12 -47 7 -7 88 27 110 46 10 9 24 29 32 44 20 38
49 36 70 -4 20 -39 42 -57 67 -58 22 0 16 26 -19 82 -13 21 -24 42 -24 47 0
16 43 41 71 41 41 0 54 -22 35 -59 -23 -43 -20 -62 14 -101 40 -47 53 -29 45
63 l-6 67 35 0 c28 0 40 -7 60 -32 43 -58 74 -206 46 -223 -6 -4 -42 8 -82 26
-68 32 -76 33 -197 34 -119 0 -131 -2 -218 -34 -83 -30 -96 -32 -123 -21 -30
12 -70 65 -70 92 0 8 11 25 25 38 38 36 51 89 31 128 -14 27 -22 32 -52 32
-31 0 -35 -3 -28 -17 13 -29 11 -108 -3 -108 -7 0 -26 22 -43 49 l-31 48 -59
-6 c-52 -6 -60 -5 -69 13 -6 11 -11 32 -11 47 0 30 -67 104 -94 104 -14 0 -16
-10 -14 -67 3 -63 5 -69 31 -81 38 -18 31 -43 -18 -65 -79 -35 -89 -43 -108
-74 -16 -28 -17 -37 -6 -72 19 -65 46 -51 93 51 25 54 53 77 75 63 6 -3 4 -20
-6 -42 -12 -30 -13 -44 -4 -75 15 -50 27 -55 46 -18 19 37 35 35 49 -7 6 -18
14 -35 18 -39 4 -4 28 12 53 35 24 22 48 41 53 41 21 0 62 -73 62 -109 0 -19
-66 -61 -98 -61 -10 0 -31 9 -46 21 -44 34 -76 38 -123 16 l-42 -21 -48 21
c-69 31 -109 36 -144 17 -17 -8 -29 -20 -26 -27 8 -25 69 -50 118 -48 44 1 49
-1 49 -20 0 -12 -16 -42 -36 -65 -35 -44 -36 -44 -101 -44 -63 0 -67 -2 -104
-39 -70 -69 -42 -115 42 -68 83 48 100 28 54 -63 -14 -27 -25 -65 -25 -85 0
-35 33 -115 48 -115 9 0 52 105 52 128 0 10 -6 26 -13 37 -22 32 -26 63 -11
82 14 17 15 17 27 -1 23 -35 59 -76 67 -76 5 0 12 25 16 56 5 46 3 63 -15 99
-11 23 -21 47 -21 52 0 20 42 63 62 63 18 0 19 -4 13 -40 -6 -37 -4 -43 25
-70 40 -37 58 -38 66 -3 6 21 -1 42 -24 84 -37 66 -38 72 -16 93 23 23 45 20
98 -15 59 -40 94 -40 157 0 27 17 55 31 61 32 27 3 38 -2 38 -16 0 -30 -32
-64 -111 -116 -49 -32 -92 -69 -110 -96 -16 -23 -40 -45 -52 -47 -12 -3 -39
-8 -59 -11 -48 -8 -68 -28 -68 -71 0 -34 1 -35 22 -20 47 33 88 14 88 -40 0
-28 -6 -36 -42 -56 -29 -15 -50 -37 -65 -66 -19 -38 -20 -47 -9 -78 6 -20 16
-35 20 -35 5 0 21 23 35 52 14 29 32 55 38 57 23 7 35 -49 27 -126 l-6 -74 34
-36 c19 -20 42 -48 51 -61 l16 -24 10 24 c8 24 14 69 12 95 -1 7 -21 38 -46
70 -29 37 -45 68 -45 86 0 41 25 36 54 -11 24 -37 61 -71 78 -71 5 0 8 16 8
35 0 30 -10 46 -60 100 -62 67 -77 109 -46 134 11 10 19 4 38 -31 37 -68 128
-117 128 -69 0 25 -41 74 -86 101 -42 26 -68 73 -59 107 9 36 80 108 146 148
34 21 67 51 80 73 30 50 68 91 102 108 24 13 28 13 33 -1 4 -9 4 -42 0 -73 -5
-43 -12 -61 -28 -72 -57 -39 -76 -63 -93 -115 -9 -31 -15 -59 -11 -62 6 -6 69
57 98 98 15 21 18 22 31 9 9 -8 18 -40 22 -71 l7 -55 -41 -27 c-65 -43 -74
-63 -56 -125 20 -66 33 -73 41 -22 11 68 64 117 78 72 4 -10 5 -47 4 -81 -3
-62 -3 -63 39 -102 23 -21 49 -39 58 -39 32 0 8 81 -48 164 -24 35 -37 96 -21
96 4 0 30 -25 59 -55 62 -64 80 -70 70 -22 -11 51 -34 81 -81 110 -46 28 -62
55 -71 120 -7 47 11 49 53 6 34 -36 75 -59 104 -59 19 0 16 7 -25 54 -25 30
-59 59 -76 66 -57 24 -76 106 -40 166 11 17 39 41 63 53 l44 21 75 -20 c103
-27 171 -59 270 -126 103 -70 142 -77 211 -41 25 14 67 29 93 33 39 5 51 3 76
-15 25 -19 38 -21 87 -16 71 7 117 -5 117 -30 0 -15 -12 -23 -50 -33 -27 -8
-61 -25 -76 -38 -32 -31 -57 -31 -69 0 -13 35 -52 58 -84 50 -24 -6 -86 -65
-86 -82 0 -4 26 -7 58 -7 52 0 57 -2 57 -22 0 -15 -17 -35 -54 -62 -30 -23
-61 -41 -68 -41 -8 0 -31 9 -53 20 -79 40 -144 20 -184 -58 -16 -31 -16 -32 9
-38 31 -8 79 -1 122 17 25 10 36 10 44 2 9 -9 -4 -29 -55 -81 -59 -61 -66 -73
-66 -108 0 -21 9 -54 20 -72 17 -28 23 -31 40 -22 39 21 50 51 50 137 0 70 3
86 20 103 28 28 41 17 34 -29 -6 -38 10 -116 25 -126 5 -3 20 12 33 32 18 31
24 57 28 132 5 87 7 95 32 114 14 11 33 17 42 14 14 -6 14 -10 0 -49 -10 -29
-14 -60 -10 -95 10 -91 24 -105 52 -51 27 53 32 83 23 136 -14 77 5 116 74
147 49 23 69 25 198 28 107 1 168 -3 239 -16 52 -11 122 -24 155 -30 110 -20
360 -159 528 -294 71 -57 88 -93 44 -93 -13 0 -55 -16 -94 -35 -104 -51 -181
-66 -289 -57 l-89 7 2 30 c2 17 5 50 8 75 6 40 3 49 -26 84 l-33 39 -17 -39
c-10 -21 -18 -61 -18 -87 -1 -57 -25 -75 -50 -38 -45 64 -75 91 -112 101 -57
16 -64 5 -27 -47 41 -57 93 -103 117 -103 21 0 55 -35 47 -48 -3 -5 -19 -15
-36 -22 -22 -9 -31 -21 -36 -47 -4 -18 -4 -36 -1 -39 6 -7 132 63 147 81 15
18 43 19 71 5 25 -14 24 -32 -3 -75 -26 -38 -61 -55 -120 -55 -70 0 -92 -19
-117 -105 -16 -52 -21 -87 -16 -108 8 -39 11 -97 5 -117 -8 -24 71 -18 108 8
16 12 38 22 47 22 15 0 17 -7 11 -46 -3 -25 -13 -55 -21 -67 -8 -12 -15 -37
-15 -56 0 -35 43 -121 61 -121 12 0 59 97 59 122 0 10 -12 42 -27 72 -14 29
-23 61 -20 70 11 27 37 18 52 -18 8 -19 25 -42 37 -50 30 -21 68 -21 68 0 0
27 -40 83 -68 98 -49 26 -77 64 -76 105 2 75 41 106 64 52 11 -27 31 -40 88
-56 19 -5 22 -3 22 19 0 17 -17 45 -50 81 -42 47 -50 61 -50 95 0 32 7 46 36
75 43 43 61 51 140 60 39 5 74 17 103 36 72 47 83 39 55 -41 -21 -60 -31 -70
-69 -70 -59 0 -130 -87 -111 -135 9 -24 23 -18 82 36 31 28 59 48 62 44 9 -8
3 -75 -8 -96 -6 -9 -23 -20 -40 -24 -16 -4 -39 -18 -50 -32 -25 -33 -45 -96
-36 -119 6 -15 15 -9 60 35 53 53 54 53 66 31 12 -22 11 -37 -6 -128 -6 -29
-2 -39 27 -69 29 -30 78 -63 93 -63 2 0 7 13 11 29 8 36 -12 86 -52 132 -58
66 -49 118 11 60 29 -28 92 -59 101 -49 11 11 -46 101 -88 140 -38 36 -47 51
-47 79 0 75 49 78 61 3 7 -44 47 -84 84 -84 33 0 40 16 24 63 -9 29 -27 50
-61 75 -79 56 -98 117 -53 166 29 31 78 35 115 9 75 -51 208 -176 248 -233 25
-36 77 -99 115 -140 37 -41 94 -119 126 -172 59 -98 153 -321 165 -391 13 -70
42 -121 98 -169 37 -31 67 -69 89 -112 33 -64 34 -66 16 -95 -9 -16 -17 -42
-17 -58 -1 -67 -37 -69 -70 -3 -14 28 -33 46 -55 56 -43 18 -45 17 -45 -1 0
-30 40 -93 80 -127 31 -25 44 -45 51 -78 21 -91 -3 -88 -91 14 -44 51 -62 81
-74 126 -12 42 -25 65 -43 77 -80 55 -102 103 -68 149 23 30 18 85 -10 127
-14 20 -30 37 -36 37 -5 0 -17 -16 -26 -36 -16 -33 -16 -38 -1 -82 22 -60 11
-73 -39 -47 -21 11 -52 33 -70 49 -29 25 -33 34 -33 78 0 41 -5 54 -29 79 -20
19 -40 29 -60 29 l-31 0 30 -53 c16 -30 30 -59 30 -65 0 -24 -48 -11 -94 25
-52 40 -89 47 -144 24 -40 -17 -40 -31 -1 -60 28 -21 38 -23 100 -17 81 8 109
2 109 -25 0 -15 -7 -19 -35 -19 -24 0 -45 -9 -67 -29 -18 -16 -30 -32 -27 -35
3 -3 31 -11 61 -17 54 -11 56 -10 99 20 32 24 50 30 68 26 34 -9 81 -43 81
-60 0 -12 -56 -35 -87 -35 -15 0 -63 -58 -63 -76 0 -10 12 -14 38 -14 28 0 45
-7 61 -24 32 -34 19 -46 -44 -46 -68 0 -100 14 -126 57 -25 41 -66 63 -114 63
l-35 0 15 -37 c20 -46 43 -73 65 -73 9 0 25 -6 36 -14 33 -25 3 -41 -79 -42
-40 -1 -78 -2 -84 -3 -16 -1 -66 -99 -59 -116 8 -22 95 10 136 50 52 51 92 47
65 -6 -17 -32 -19 -67 -5 -89 14 -22 76 41 105 106 27 61 60 78 115 60 49 -16
48 -33 -4 -55 -46 -20 -86 -53 -86 -71 0 -14 76 -13 103 1 12 6 39 27 59 46
31 31 41 35 70 29 45 -8 174 -85 222 -132 72 -70 119 -164 81 -164 -33 0 -86
34 -91 60 -11 50 -24 70 -58 86 -66 32 -79 4 -28 -64 29 -40 22 -51 -38 -54
-40 -1 -46 2 -83 45 -37 44 -42 47 -88 47 -34 0 -49 -4 -49 -13 0 -16 41 -57
57 -57 16 0 23 -27 10 -38 -7 -6 -42 -13 -79 -17 -49 -5 -72 -13 -86 -29 -24
-25 -38 -81 -23 -91 17 -10 93 30 130 69 52 54 80 45 46 -14 -17 -29 -19 -70
-5 -70 26 0 71 33 97 72 18 27 38 44 52 46 20 3 22 1 16 -15 -15 -34 -18 -103
-4 -103 6 0 38 27 70 60 36 37 66 60 79 60 62 0 151 -80 172 -155 6 -23 27
-55 49 -77 22 -21 39 -42 39 -47 0 -5 -11 -22 -24 -37 l-23 -28 -32 27 c-18
15 -42 27 -53 27 -23 0 -88 -45 -88 -61 0 -5 32 -9 70 -9 62 0 70 -2 70 -19 0
-11 -16 -36 -35 -57 -33 -34 -36 -36 -57 -22 -64 42 -66 42 -92 30 -14 -6 -33
-23 -42 -37 -25 -38 -7 -51 51 -38 35 8 47 7 56 -3 15 -18 -23 -79 -62 -99
-50 -26 -65 -88 -33 -134 l16 -23 29 28 c25 24 29 35 29 82 0 63 13 92 42 92
18 0 20 -4 15 -36 -5 -31 -2 -41 23 -66 17 -16 36 -28 43 -25 18 6 9 55 -19
102 -13 23 -24 53 -24 66 0 36 36 89 60 89 19 0 20 -4 14 -49 -6 -48 6 -91 26
-91 5 0 17 14 26 32 15 29 15 35 -2 84 -17 50 -17 56 -1 88 20 42 51 53 104
35 66 -21 111 -57 143 -111 26 -47 30 -63 30 -132 0 -57 7 -101 28 -165 25
-79 27 -98 25 -226 -1 -77 -7 -153 -13 -169 -5 -15 -30 -53 -54 -85 -24 -31
-47 -72 -51 -91 -14 -67 -47 -61 -81 16 -13 30 -45 75 -71 102 -27 27 -58 63
-71 80 -21 28 -29 32 -72 32 -27 0 -52 -5 -56 -12 -9 -14 31 -48 57 -48 12 0
19 -7 19 -20 0 -21 -83 -70 -119 -70 -54 0 -91 -45 -91 -112 0 -52 74 -9 130
74 23 34 44 54 59 56 40 6 46 -13 16 -52 -22 -30 -26 -43 -22 -72 4 -20 9 -39
13 -43 9 -9 57 55 74 101 21 58 42 69 75 38 14 -13 30 -41 36 -63 6 -21 24
-57 40 -79 29 -41 36 -81 19 -108 -8 -13 -14 -13 -42 -1 -114 46 -115 46 -159
31 -53 -19 -59 -34 -20 -54 39 -21 86 -20 122 1 34 20 62 10 67 -26 2 -15 -4
-24 -22 -31 -14 -5 -32 -23 -41 -39 -18 -35 -20 -111 -3 -111 21 0 76 49 82
75 10 41 38 30 73 -28 46 -78 48 -94 18 -178 -24 -69 -26 -92 -35 -339 -10
-278 -17 -328 -66 -444 -14 -34 -39 -96 -57 -138 -33 -84 -46 -92 -97 -63 -51
29 -93 12 -106 -43 -4 -15 -22 -52 -41 -84 -19 -31 -37 -74 -40 -97 -11 -79
-55 -72 -68 11 -9 52 -20 68 -50 68 -28 0 -55 -30 -55 -62 0 -31 16 -45 55
-50 22 -2 35 -13 52 -43 34 -60 30 -84 -22 -135 -54 -53 -62 -48 -93 44 -21
61 -20 86 4 86 7 0 -14 27 -47 60 -63 63 -76 72 -59 41 19 -37 12 -60 -25 -75
-35 -15 -48 -35 -59 -88 -4 -16 -13 -28 -21 -28 -22 0 -75 112 -75 158 0 25
-9 50 -25 72 -14 19 -25 40 -25 46 0 32 -63 37 -74 7 -9 -21 10 -40 45 -48 35
-8 51 -40 43 -85 -5 -22 1 -40 25 -77 32 -48 37 -83 14 -91 -7 -2 -20 9 -30
25 -26 44 -166 147 -218 158 -26 6 -24 4 17 -23 26 -17 54 -42 63 -55 9 -14
33 -37 55 -51 40 -27 59 -61 42 -78 -7 -7 -21 -2 -44 15 -33 24 -140 79 -145
73 -2 -1 22 -24 52 -50 30 -26 55 -51 55 -56 0 -15 -75 -4 -117 18 -47 25 -51
23 -27 -14 22 -33 5 -56 -26 -36 -17 10 -21 10 -26 -3 -7 -17 -59 -21 -69 -5
-3 5 5 26 19 47 30 46 50 123 32 123 -7 0 -27 -16 -46 -35 -35 -37 -55 -44
-63 -22 -7 22 15 67 48 95 17 15 40 39 50 54 l17 28 -31 -6 c-42 -9 -42 20 0
42 31 15 32 23 14 66 -5 12 2 21 24 33 17 8 31 22 31 31 0 17 -38 94 -46 94
-3 0 -17 -9 -31 -20 -34 -27 -43 -25 -43 8 0 16 -6 37 -14 48 -15 19 -15 19
-53 -1 -27 -14 -41 -30 -49 -55 -8 -23 -20 -37 -38 -43 -33 -11 -33 -21 4 -67
28 -35 32 -37 59 -27 46 17 61 5 61 -51 0 -55 -14 -74 -48 -65 -29 7 -28 -2 3
-39 21 -25 24 -37 20 -67 -17 -102 -18 -103 -65 -76 -32 18 -40 18 -40 0 0 -9
16 -32 36 -51 23 -23 34 -43 32 -57 -4 -30 -44 -35 -53 -8 -3 12 -13 21 -21
21 -7 0 -26 18 -40 40 -22 33 -31 39 -50 34 -21 -5 -25 -2 -31 26 l-6 33 -14
-27 c-8 -15 -22 -26 -33 -26 -16 0 -20 7 -20 33 0 36 12 55 50 81 34 22 56 20
94 -9 38 -29 49 -31 67 -9 11 14 9 19 -11 35 l-25 19 31 29 c24 21 29 32 22
45 -12 21 -24 20 -55 -4 -31 -24 -43 -18 -43 21 0 19 -5 29 -14 29 -22 0 -30
-19 -27 -66 2 -39 -1 -44 -31 -60 -41 -21 -78 -54 -78 -70 0 -7 -17 -18 -37
-25 -21 -6 -47 -18 -58 -25 -23 -17 -51 -18 -60 -4 -4 6 12 31 34 55 23 25 41
54 41 65 0 24 -3 24 -39 5 -25 -12 -31 -13 -41 0 -18 21 -3 51 35 74 22 12 35
28 35 40 0 14 9 23 25 27 54 13 74 113 25 124 -21 5 -25 12 -28 47 -4 55 -20
67 -73 56 -40 -8 -51 -17 -63 -56 -4 -12 -16 -17 -39 -17 -45 0 -53 -11 -49
-72 3 -44 8 -56 25 -63 18 -8 21 -17 19 -47 -3 -33 0 -38 23 -44 33 -8 49 -37
35 -64 -13 -24 -13 -24 -51 -4 -17 8 -35 14 -40 12 -15 -5 28 -56 62 -73 31
-16 38 -42 15 -51 -8 -3 -28 2 -45 10 -32 17 -61 21 -61 9 0 -5 23 -24 51 -43
56 -38 85 -73 74 -90 -10 -17 -30 -12 -55 15 -21 22 -32 25 -93 25 -67 0 -69
-1 -54 -18 23 -25 21 -49 -3 -62 -18 -10 -22 -6 -39 32 -15 34 -20 39 -26 26
-11 -28 -44 -22 -51 9 -15 69 -18 75 -37 61 -9 -7 -24 -39 -32 -71 -26 -99
-42 -117 -68 -74 -48 78 -48 79 -62 67 -21 -18 -35 -3 -35 37 0 30 -2 34 -14
23 -8 -6 -20 -28 -27 -48 -18 -56 -26 -60 -60 -25 l-31 31 -35 -35 c-20 -18
-41 -32 -47 -30 -22 7 -17 38 19 122 35 82 37 89 29 153 -4 37 -9 56 -12 42
-2 -14 -12 -59 -23 -100 -31 -117 -109 -195 -109 -109 0 26 -3 29 -33 29 -19
0 -37 -3 -40 -6 -8 -8 12 -46 29 -57 7 -4 16 -24 20 -43 12 -66 -29 -69 -68
-6 -18 29 -24 33 -26 19 -2 -10 1 -31 6 -47 8 -22 7 -31 -3 -40 -11 -9 -20 -6
-40 14 -14 14 -25 32 -25 41 0 11 -7 15 -22 13 -15 -2 -26 6 -38 27 -9 18 -38
41 -68 56 -29 15 -52 25 -52 23 0 -3 18 -22 40 -43 32 -30 40 -45 40 -74 0
-20 -5 -39 -12 -43 -14 -9 -54 38 -70 83 -17 46 -32 41 -25 -7 7 -52 -11 -68
-46 -40 l-26 21 6 -34 c7 -46 -10 -54 -43 -22 -23 23 -26 32 -20 71 l6 45 -30
-18 c-43 -25 -53 -10 -39 54 8 35 9 55 1 69 -10 17 -11 17 -23 -9 -14 -31 -44
-35 -59 -8 -17 32 -12 61 20 113 17 26 30 52 30 58 0 17 -19 21 -40 8 -18 -12
-23 -10 -44 16 -26 33 -56 31 -56 -4 0 -11 -11 -30 -25 -42 -14 -12 -25 -25
-25 -29 0 -4 15 -17 34 -28 23 -15 39 -36 49 -64 8 -23 22 -59 31 -80 15 -34
15 -38 1 -44 -10 -3 -30 4 -47 17 l-31 23 8 -24 c17 -54 17 -96 0 -112 -28
-28 -45 -21 -45 19 0 33 -1 34 -16 19 -12 -12 -19 -13 -30 -4 -22 18 -17 50
16 99 30 45 38 70 22 70 -5 0 -17 -9 -27 -20 -55 -61 -88 43 -45 139 26 56 25
61 -6 61 -16 0 -37 11 -51 26 -31 34 -48 26 -48 -22 0 -35 -3 -39 -27 -42 -39
-5 -35 -25 12 -56 24 -16 40 -34 40 -46 0 -22 -17 -25 -68 -11 -44 13 -44 -13
0 -37 73 -39 118 -105 83 -118 -12 -5 -24 3 -40 22 -30 37 -40 28 -20 -19 19
-46 19 -71 1 -86 -11 -9 -20 -10 -35 -1 -14 7 -21 7 -21 0 0 -5 -9 -10 -21
-10 -18 0 -21 5 -19 43 4 60 1 77 -10 77 -5 0 -10 -8 -10 -17 0 -10 -11 -42
-25 -71 -36 -78 -64 -67 -68 27 -1 45 -13 44 -33 -6 -21 -50 -39 -51 -80 -7
-26 29 -33 34 -29 17 3 -12 2 -24 -3 -26 -26 -17 -72 64 -72 127 0 60 -19 51
-27 -13 -3 -24 -11 -41 -19 -41 -7 0 -29 31 -50 70 -20 38 -40 70 -43 70 -4 0
-5 -16 -3 -36 l4 -36 -43 4 c-38 3 -44 0 -47 -18 -2 -11 4 -27 13 -34 22 -18
19 -35 -11 -48 -14 -7 -32 -28 -40 -47 -8 -20 -22 -39 -31 -42 -21 -8 -43 22
-43 60 0 24 -3 27 -14 18 -7 -6 -16 -25 -20 -42 -5 -25 -10 -30 -28 -27 -21 3
-23 7 -20 63 1 37 -1 55 -7 47 -4 -8 -17 -12 -27 -10 -23 4 -31 76 -14 119 7
16 9 36 6 45 -6 16 -8 16 -24 0 -26 -22 -37 -20 -60 11 -17 23 -22 25 -36 14
-12 -10 -13 -18 -5 -33 8 -15 7 -24 -7 -39 -16 -18 -15 -19 20 -34 20 -9 46
-30 57 -48 22 -36 22 -82 -1 -82 -8 0 -21 -8 -29 -19 -13 -17 -17 -15 -63 35
-27 30 -46 45 -42 34 29 -83 30 -125 1 -125 -12 0 -45 61 -61 113 -7 22 -35
22 -43 1 -4 -11 3 -23 20 -36 50 -36 25 -62 -37 -38 -30 11 -32 8 -10 -26 24
-35 5 -51 -29 -24 -15 12 -28 16 -32 10 -3 -5 -15 -10 -27 -10 -19 0 -20 5
-16 53 3 28 9 60 13 71 7 17 6 17 -15 6 -20 -11 -25 -10 -37 6 -7 10 -13 24
-13 31 0 13 38 53 51 53 12 0 20 35 13 54 -5 12 -14 16 -31 13 -17 -3 -29 3
-44 24 -26 38 -37 37 -41 -3 -2 -28 -8 -34 -31 -36 -42 -5 -31 -34 18 -48 29
-8 41 -17 43 -33 3 -16 -2 -24 -17 -28 l-20 -5 21 -28 c26 -35 18 -66 -12 -50
-19 10 -19 8 -14 -33 7 -50 -9 -70 -31 -41 -21 28 -30 85 -15 94 7 4 9 16 5
29 -5 16 -1 23 17 30 23 10 23 10 1 10 -30 1 -61 -42 -69 -97 -12 -81 -37 -95
-55 -29 l-12 42 -6 -30 c-4 -21 -13 -31 -29 -33 -13 -2 -22 2 -22 10 0 7 -9 2
-19 -11 -26 -34 -45 -19 -38 31 l5 40 -24 -23 c-23 -22 -24 -22 -44 -4 -19 18
-20 17 -20 -1 0 -23 -27 -64 -41 -64 -6 0 -15 14 -21 31 l-10 30 -19 -30 c-24
-39 -44 -39 -64 -1 -16 32 -48 40 -62 16 -15 -25 -86 -66 -115 -66 -36 0 -78
40 -78 74 0 14 -4 28 -10 31 -6 4 -10 -6 -10 -22 0 -16 -6 -37 -13 -46 -11
-16 -15 -16 -32 -4 -17 13 -21 12 -36 -6 -14 -18 -19 -19 -32 -9 -30 25 -41
70 -28 113 17 55 7 60 -19 10 -20 -41 -42 -52 -56 -29 -6 9 -10 5 -14 -12 -4
-17 -12 -24 -25 -22 -10 2 -21 -2 -25 -9 -5 -6 -16 -9 -25 -5 -17 6 -17 28 0
81 5 16 2 14 -19 -7 -14 -16 -31 -28 -38 -28 -14 0 -48 115 -48 162 0 31 -32
47 -55 28 -23 -19 -18 -42 15 -73 29 -28 41 -67 20 -67 -6 0 -25 7 -42 16
l-32 17 19 -29 c32 -49 47 -83 40 -94 -9 -15 -27 -12 -55 10 -14 11 -31 20
-37 20 -20 0 -15 -24 7 -38 15 -9 20 -23 20 -52 0 -34 -3 -40 -20 -40 -11 0
-23 8 -26 17 -3 10 -8 24 -10 32 -4 11 -9 9 -25 -7 -26 -28 -27 -28 -43 10
-13 30 -14 30 -21 9 -5 -15 -14 -21 -28 -20 -12 2 -36 -5 -54 -14 -35 -18 -56
-15 -91 16 l-22 20 0 -21 c0 -12 -6 -22 -13 -22 -18 0 -57 29 -57 43 0 7 -5
19 -10 27 -8 13 -12 12 -25 -7 -20 -29 -41 -29 -57 0 -12 21 -13 20 -18 -18
-4 -32 -9 -40 -25 -40 -13 0 -21 8 -23 22 -3 22 -22 33 -22 13 0 -15 -33 -12
-69 6 -35 18 -65 72 -55 98 3 9 4 16 0 16 -3 0 -10 -18 -16 -40 -8 -29 -16
-40 -30 -40 -21 0 -21 2 -26 105 -3 73 -15 145 -25 145 -5 0 -9 -9 -9 -19 0
-44 -51 -28 -65 22 -10 31 -45 67 -67 67 -12 0 -26 -16 -40 -45 -30 -61 -51
-57 -58 11 -5 47 -43 124 -62 124 -11 0 -10 -7 8 -41 12 -25 13 -44 6 -106 -8
-68 -7 -78 10 -95 23 -23 23 -48 -1 -48 -20 0 -31 18 -31 50 0 30 -75 90 -113
89 -30 0 -31 -1 -12 -14 11 -8 28 -20 38 -27 24 -18 40 -89 27 -123 -13 -35
-27 -31 -45 12 -26 62 -36 69 -51 34 -14 -34 -34 -40 -54 -16 -6 8 -14 51 -18
97 -4 66 -7 78 -15 60 -6 -12 -18 -22 -28 -22 -18 0 -23 12 -44 104 -8 38 -62
88 -89 84 -17 -2 -22 -11 -24 -44 -3 -37 0 -42 35 -65 46 -29 56 -65 21 -78
-17 -7 -19 -10 -8 -14 8 -2 29 -8 45 -13 22 -7 36 -22 54 -57 31 -63 21 -74
-50 -53 -29 9 -54 16 -56 16 -12 0 4 -27 42 -70 25 -28 45 -57 45 -65 0 -23
-20 -28 -41 -9 -17 16 -19 16 -19 1 0 -10 -3 -17 -7 -18 -22 -2 -51 -8 -72
-15 -23 -7 -24 -6 -17 32 5 21 10 51 13 65 3 14 -1 45 -8 70 -12 42 -13 42
-16 14 -9 -86 -45 -143 -71 -112 -19 23 -30 95 -21 135 12 54 10 114 -5 135
-21 27 -26 21 -26 -30 0 -95 -38 -98 -63 -6 -20 71 -21 93 -4 94 6 1 23 2 37
2 20 2 27 9 34 39 9 34 12 37 50 40 l41 3 8 79 c9 94 4 103 -51 89 -50 -13
-69 -4 -53 25 16 29 14 77 -4 92 -19 16 -130 4 -146 -17 -10 -12 -9 -21 5 -48
25 -46 16 -65 -32 -65 -49 0 -83 -31 -64 -58 7 -9 22 -32 33 -50 19 -28 26
-32 58 -30 l36 3 1 -61 c1 -34 4 -66 8 -72 3 -5 0 -15 -8 -21 -11 -9 -21 -6
-45 15 -17 14 -31 21 -31 16 0 -30 24 -64 60 -87 42 -27 80 -77 80 -107 0 -22
-28 -23 -54 -3 -11 8 -38 15 -59 15 -33 0 -38 -2 -27 -14 6 -8 28 -20 48 -27
61 -19 102 -49 122 -90 11 -21 20 -45 20 -54 0 -22 -37 -19 -50 5 -6 11 -21
20 -34 20 -12 0 -33 11 -46 25 -35 37 -52 33 -44 -10 8 -45 -9 -46 -68 -6 -24
16 -57 33 -73 37 -27 7 -26 5 17 -37 54 -51 66 -86 49 -147 -6 -24 -9 -48 -6
-53 4 -5 2453 -9 6346 -9 5798 0 6339 1 6339 16 0 79 -95 229 -127 202 -12
-10 -18 -9 -28 5 -11 15 -14 16 -25 2 -21 -25 -47 -18 -53 15 -5 21 -12 30
-26 30 -11 0 -25 9 -31 19 -8 15 -19 19 -51 16 -22 -1 -46 -8 -52 -14 -16 -16
-24 -14 -46 10 l-19 21 -7 -21 c-8 -28 -39 -27 -58 2 -8 12 -31 31 -50 42
l-36 19 -25 -23 c-18 -17 -32 -22 -53 -18 -18 3 -34 0 -45 -10 -16 -14 -20
-13 -47 16 -33 36 -57 40 -66 11 -7 -21 -39 -27 -50 -10 -3 5 -14 14 -25 20
-15 8 -22 4 -39 -25 -24 -41 -47 -45 -63 -11 l-11 25 -17 -21 -17 -22 -12 23
c-10 18 -15 20 -27 10 -11 -9 -18 -8 -32 5 -23 20 -42 20 -68 1 -28 -21 -43
-18 -56 10 -13 28 -30 32 -48 10 -10 -12 -16 -13 -26 -4 -8 6 -14 17 -14 25 0
28 -23 25 -47 -5 -28 -35 -50 -39 -69 -13 -10 14 -15 15 -25 4 -7 -6 -20 -12
-29 -12 -8 0 -26 -9 -40 -20 -22 -17 -27 -17 -41 -4 -11 10 -19 12 -24 5 -12
-20 -35 -11 -53 19 -14 23 -21 27 -30 18 -7 -7 -12 -17 -12 -23 0 -6 -5 -16
-12 -23 -9 -9 -16 -8 -30 5 -15 13 -23 14 -44 4 -32 -14 -42 -8 -52 32 -10 38
-48 50 -69 21 -19 -26 -17 -32 17 -49 37 -19 38 -39 5 -61 -21 -14 -30 -14
-55 -4 -28 11 -75 10 -145 -5 -28 -6 -32 -3 -48 30 -18 39 -37 39 -37 0 0 -23
-24 -40 -41 -29 -5 3 -9 15 -9 27 0 16 -3 18 -12 9 -7 -7 -20 -12 -29 -12 -10
0 -26 -11 -37 -25 -29 -37 -50 -31 -73 20 -11 25 -24 45 -29 45 -14 0 -24 -23
-22 -52 3 -35 -14 -45 -40 -21 -11 10 -30 18 -41 18 -12 0 -26 10 -33 23 -19
39 -34 49 -34 24 0 -30 -28 -28 -41 2 -16 35 -5 68 41 121 44 51 52 85 20 85
-30 0 -24 22 15 59 52 48 47 61 -14 40 -44 -16 -58 -1 -37 39 12 23 27 34 63
44 55 16 70 46 31 63 -16 7 -23 19 -24 38 -1 40 -15 50 -47 36 -17 -8 -27 -20
-27 -33 0 -31 -11 -43 -47 -51 -39 -8 -42 -21 -9 -37 32 -14 39 -34 23 -66
-13 -28 -19 -29 -75 -17 -27 6 -31 5 -26 -8 3 -8 23 -27 45 -41 25 -17 39 -34
39 -47 0 -22 4 -22 -85 -4 -29 6 -29 5 18 -37 46 -43 47 -45 47 -105 0 -53 -3
-64 -22 -77 -39 -27 -55 -20 -61 25 -6 46 -37 90 -37 53 0 -20 -17 -44 -32
-44 -17 0 -40 53 -49 115 -5 37 -15 76 -21 88 -12 21 -13 20 -18 -18 -4 -32
-10 -41 -27 -43 -21 -3 -23 0 -23 45 1 26 6 60 13 75 13 29 89 95 125 109 13
5 28 22 33 39 9 24 17 30 40 30 36 0 48 24 24 50 -16 18 -16 22 -1 61 13 31
14 44 5 55 -19 23 -47 16 -64 -16 -9 -16 -21 -30 -27 -30 -6 0 -25 17 -43 37
-41 47 -57 38 -53 -30 3 -48 2 -51 -27 -58 -40 -11 -50 2 -50 66 0 59 -8 64
-39 22 -16 -22 -18 -32 -9 -60 11 -38 1 -77 -22 -77 -11 0 -15 10 -15 36 0 20
-7 60 -16 90 -8 30 -14 66 -12 81 3 26 6 28 54 29 28 0 56 4 62 8 19 12 14 54
-8 66 -26 14 -25 32 0 55 29 27 24 89 -7 93 -13 2 -29 -5 -40 -17 -22 -26 -41
-26 -68 -1 -20 18 -22 19 -44 4 -20 -14 -22 -22 -17 -56 6 -35 3 -42 -19 -60
-14 -11 -25 -28 -25 -38 0 -24 25 -44 49 -37 26 6 37 -3 45 -38 10 -51 -3 -61
-68 -45 -51 12 -58 12 -76 -5 -15 -14 -20 -31 -20 -72 0 -59 -13 -93 -34 -93
-35 0 -55 154 -56 430 -3 704 -1 834 11 950 14 132 14 137 1 380 -7 122 -16
183 -42 286 -38 152 -37 172 19 260 68 108 143 119 230 34 51 -50 52 -74 5
-135 -38 -51 -54 -85 -54 -117 0 -18 4 -20 32 -14 45 9 66 33 81 91 7 27 17
50 24 52 18 6 53 -56 53 -93 0 -22 -11 -44 -38 -75 -48 -54 -62 -80 -62 -114
0 -25 0 -25 30 -10 20 10 33 26 37 45 10 54 44 63 63 16 8 -19 9 -19 9 7 1 38
16 34 73 -19 37 -35 55 -45 76 -42 21 2 26 8 24 23 -6 35 -31 63 -93 106 -60
40 -144 148 -136 173 2 7 27 10 63 8 50 -3 62 0 79 18 18 20 18 21 -3 43 -20
19 -33 22 -106 22 l-83 0 -58 51 c-64 55 -65 67 -10 90 41 17 127 4 190 -29
28 -14 68 -23 132 -27 69 -5 97 -11 113 -25 26 -23 26 -65 0 -112 -20 -38 -28
-123 -11 -123 21 0 61 63 61 96 0 30 3 34 25 34 15 0 31 -10 41 -25 15 -23 15
-32 4 -81 -12 -48 -11 -59 4 -90 14 -31 19 -34 32 -23 12 10 15 25 11 60 -8
61 9 78 47 48 17 -13 26 -30 26 -49 0 -48 17 -78 59 -105 49 -30 71 -32 71 -5
0 46 -53 112 -117 144 -34 17 -51 52 -34 69 8 8 25 7 62 -2 58 -15 70 -10 44
19 -15 17 -31 20 -95 20 -83 0 -115 13 -108 46 3 16 12 19 59 19 56 0 89 15
89 40 0 20 -84 48 -122 41 -103 -19 -104 -19 -131 5 -15 13 -24 29 -19 34 16
22 119 78 153 82 32 5 39 1 67 -35 29 -37 120 -88 142 -80 5 2 1 22 -10 45
-13 29 -32 49 -65 68 -52 31 -56 52 -12 73 44 21 78 7 136 -58 29 -33 56 -60
62 -60 10 0 12 40 3 65 -4 8 -19 22 -35 31 -37 19 -39 51 -3 60 19 5 42 -1 81
-21 51 -26 55 -26 91 -12 20 8 37 21 37 28 0 7 -21 26 -48 43 l-47 29 -48 -22
c-62 -29 -107 -26 -107 8 0 19 8 27 34 36 38 13 60 46 61 93 0 44 -18 41 -78
-13 -40 -36 -52 -55 -62 -95 -11 -44 -17 -53 -52 -71 -22 -11 -46 -18 -54 -15
-18 7 -18 37 1 62 8 10 19 36 25 57 16 54 188 237 269 285 40 23 55 26 143 26
97 1 100 0 124 -28 36 -41 29 -74 -24 -109 -44 -30 -82 -94 -82 -139 0 -20 0
-20 32 -1 19 11 46 42 63 73 17 30 38 56 48 58 22 4 37 -34 37 -95 0 -37 -5
-50 -31 -74 -17 -16 -35 -29 -40 -29 -9 0 -59 -92 -59 -110 0 -25 36 -6 80 42
42 45 50 50 64 39 30 -25 17 -71 -37 -128 l-30 -32 18 -61 c10 -34 22 -63 26
-66 4 -2 24 25 45 62 l37 66 -12 69 c-18 98 -1 115 55 54 24 -27 40 -35 65
-35 55 0 66 13 40 46 -30 38 -81 74 -106 74 -37 0 -63 28 -80 86 -13 43 -13
59 -4 70 15 18 46 10 81 -24 34 -31 45 -23 28 18 -23 55 -49 79 -106 96 -57
16 -89 48 -82 81 4 21 36 31 103 32 91 1 135 -15 195 -73 58 -56 127 -102 137
-92 13 13 -22 69 -52 82 -76 31 -67 64 18 64 77 0 107 -22 107 -79 0 -38 36
-104 54 -98 18 6 19 53 2 86 -23 44 -20 61 10 61 18 0 42 -16 78 -51 42 -43
98 -79 121 -79 13 0 3 50 -15 73 -37 47 -82 72 -140 77 -50 5 -55 7 -55 30 0
20 7 26 37 33 44 10 68 35 71 73 2 27 0 29 -32 27 -42 -2 -77 -27 -113 -80
-26 -38 -31 -41 -89 -47 -48 -6 -65 -4 -76 7 -13 13 -11 20 20 54 20 22 37 52
39 68 3 28 1 30 -37 33 -31 2 -48 11 -75 40 -19 20 -48 47 -65 59 -42 30 -26
52 59 82 l66 23 38 -26 c47 -32 103 -34 151 -5 l34 20 -21 21 c-14 15 -38 23
-77 26 -30 2 -58 9 -61 14 -4 5 9 25 27 44 33 34 35 35 109 32 74 -2 136 15
134 37 0 6 -23 18 -50 28 -64 24 -109 12 -174 -49 -69 -65 -116 -55 -75 16 23
40 18 84 -11 114 -15 14 -30 26 -34 26 -4 0 -15 -20 -25 -45 -18 -48 -17 -88
6 -162 12 -38 11 -44 -5 -62 -20 -22 -103 -54 -117 -45 -13 8 -10 37 6 58 9
12 15 42 15 78 0 68 -12 74 -62 29 -31 -28 -33 -33 -33 -98 0 -37 -4 -73 -8
-80 -4 -7 -39 -22 -76 -33 -38 -11 -85 -31 -105 -45 -58 -40 -66 -35 -66 40 0
74 13 89 88 101 49 8 89 35 78 52 -11 18 -55 14 -105 -8 -69 -32 -73 -30 -65
43 3 34 15 76 25 93 11 18 24 58 31 89 7 38 27 82 59 130 74 114 179 167 322
164 39 -1 75 4 93 13 74 38 133 50 182 38 49 -11 115 -63 127 -99 3 -10 -4
-42 -15 -70 -23 -59 -27 -121 -7 -121 27 1 60 38 66 76 8 46 30 55 60 23 26
-29 27 -61 0 -115 -12 -27 -19 -57 -17 -81 l3 -38 28 28 c23 22 27 33 22 57
-6 27 -4 30 19 30 32 0 42 -20 49 -99 5 -57 9 -68 43 -102 54 -56 64 -52 64
27 l0 65 -55 53 c-76 72 -73 108 7 80 41 -14 111 -8 105 10 -7 23 -72 46 -129
46 -52 0 -62 3 -98 36 -50 46 -53 69 -7 59 116 -24 162 -14 109 24 -58 41
-123 63 -155 52 -25 -9 -38 -6 -93 25 -71 40 -82 65 -36 82 64 26 114 19 159
-22 46 -40 75 -56 103 -56 18 0 19 3 10 20 -6 11 -29 32 -50 45 -22 14 -40 30
-40 36 0 5 16 17 37 25 54 23 98 11 144 -40 38 -41 113 -85 125 -73 10 10 -26
66 -61 93 -44 34 -44 51 0 60 27 5 50 0 96 -20 34 -16 72 -26 89 -24 l30 3
-33 50 c-47 68 -74 82 -118 60 -49 -26 -84 -34 -102 -23 -24 13 -21 23 19 68
38 42 40 71 4 90 -26 14 -100 -67 -100 -109 0 -49 -16 -78 -51 -90 -74 -26
-86 -9 -39 53 19 26 30 51 30 73 0 38 -1 38 -40 18 -41 -21 -70 -63 -70 -99 0
-55 -16 -64 -165 -101 -77 -19 -173 -44 -212 -55 -46 -13 -104 -20 -158 -20
-97 0 -107 8 -80 60 13 26 15 38 6 57 -6 13 -11 42 -11 64 0 43 -21 103 -46
131 -20 21 -12 34 32 53 23 10 39 26 49 49 17 40 19 82 6 91 -16 10 -119 -42
-125 -63 -4 -11 -13 -23 -21 -25 -18 -7 -95 48 -95 68 0 9 28 50 63 93 35 42
73 94 86 114 38 63 102 97 157 84 15 -4 49 -29 76 -56 48 -48 104 -75 134 -63
18 7 18 17 -1 53 -24 47 -62 70 -115 70 -48 0 -66 14 -51 38 9 15 57 32 92 32
44 0 66 -15 91 -64 31 -58 96 -115 109 -95 17 26 -1 73 -43 110 -25 21 -38 41
-34 47 13 21 37 13 78 -24 34 -30 45 -35 70 -30 17 3 39 6 48 6 22 0 17 34 -9
64 -31 37 -72 46 -124 29 -76 -25 -104 4 -50 51 l27 23 -10 116 c-9 101 -13
120 -34 142 -19 21 -33 25 -76 25 -65 0 -84 7 -84 31 0 22 29 39 67 39 34 0
69 22 60 37 -8 12 -84 33 -120 33 -34 0 -74 -35 -82 -71 -5 -23 -16 -35 -41
-45 -72 -30 -104 -9 -55 36 31 29 42 72 21 85 -13 8 -60 -17 -87 -47 -11 -12
-26 -42 -32 -65 -18 -67 -70 -93 -107 -52 -10 11 -27 25 -37 31 -16 8 -18 5
-16 -43 3 -52 2 -53 -52 -103 -31 -28 -84 -66 -119 -84 -82 -41 -94 -34 -80
52 12 72 30 101 67 109 30 6 83 42 83 58 0 14 -47 22 -68 10 -29 -16 -45 7
-32 45 10 30 80 84 108 84 27 0 5 25 -24 28 -21 2 -36 -4 -54 -23 -13 -14 -30
-25 -37 -25 -21 0 -45 66 -37 105 3 19 0 49 -7 69 -12 33 -11 41 6 74 33 61
114 135 177 161 54 22 58 22 92 6 30 -15 39 -26 51 -69 11 -37 28 -65 59 -95
l43 -43 7 25 c8 32 0 52 -37 99 -35 43 -29 58 21 58 54 0 82 -23 82 -67 0 -49
22 -163 31 -163 12 0 47 53 54 82 4 16 0 38 -9 56 -22 42 -20 52 8 52 29 0 56
-33 56 -68 0 -13 5 -33 11 -45 12 -24 59 -66 73 -67 4 0 6 31 4 70 -4 81 -16
97 -86 121 -59 20 -63 40 -22 97 28 36 37 42 69 42 49 0 160 -37 189 -63 14
-13 33 -55 48 -107 14 -47 32 -91 40 -99 11 -12 15 -10 24 15 6 16 9 43 5 61
-5 28 -3 33 13 33 10 0 27 -6 37 -14 18 -13 19 -18 7 -60 -6 -26 -12 -59 -12
-75 0 -17 -5 -42 -10 -57 -6 -15 -8 -29 -5 -32 7 -8 45 29 61 60 34 66 65 11
44 -77 -12 -49 -11 -57 10 -99 12 -25 26 -46 31 -46 15 0 39 57 39 92 0 18
-14 66 -30 106 -43 101 -26 120 50 57 78 -65 126 -58 85 11 -28 47 -71 71
-145 83 -35 6 -63 19 -95 46 -63 51 -58 68 23 76 92 9 96 20 20 63 -77 43 -93
44 -138 11 -19 -14 -39 -25 -46 -25 -24 0 -144 62 -144 75 0 8 23 20 53 29 28
9 78 34 110 55 92 63 147 63 202 1 11 -13 34 -29 52 -36 37 -16 93 -19 93 -5
0 21 -52 70 -90 85 -47 18 -52 42 -12 57 48 19 102 5 136 -36 30 -34 83 -75
99 -75 21 0 4 55 -28 87 -27 28 -32 39 -24 50 16 19 79 16 114 -5 43 -26 73
-32 103 -21 40 15 115 80 105 90 -5 5 -53 12 -106 16 -78 5 -105 3 -141 -11
-74 -29 -86 -6 -30 56 23 25 32 44 26 50 -5 5 -36 8 -68 6 l-59 -3 -25 -62
c-30 -74 -37 -82 -81 -93 -19 -4 -49 -14 -66 -21 -44 -18 -55 -5 -40 49 9 35
9 48 -3 69 -24 42 -39 39 -61 -11 -14 -32 -18 -56 -13 -81 8 -42 -14 -65 -107
-112 -120 -61 -241 -64 -324 -8 -19 14 -47 28 -61 31 -33 9 -41 30 -19 54 23
25 41 25 90 0 22 -11 45 -20 53 -20 22 0 73 30 67 40 -3 5 -31 17 -63 26 -31
10 -61 21 -66 26 -17 14 35 56 84 68 27 6 56 20 66 31 17 18 40 126 29 137 -3
3 -16 -1 -30 -8 -54 -29 -105 -82 -129 -135 -25 -55 -44 -72 -69 -62 -11 4
-12 15 -4 55 9 42 8 54 -7 77 -15 23 -75 59 -84 50 -8 -7 21 -134 40 -177 18
-40 19 -52 10 -74 -16 -34 -43 -28 -54 13 -8 29 -58 83 -79 83 -5 0 -9 -24 -9
-54 0 -40 6 -61 25 -87 52 -73 58 -88 41 -114 -20 -30 -65 -57 -156 -90 -152
-55 -188 -76 -232 -132 -70 -91 -173 -162 -199 -136 -5 5 -5 33 1 68 5 33 14
92 20 130 8 49 27 103 66 182 47 96 56 124 62 190 8 86 2 81 83 67 26 -4 39
-1 49 10 11 14 10 19 -6 31 -10 8 -32 18 -48 23 -38 10 -54 35 -37 56 18 21
40 20 76 -4 38 -25 83 -25 115 0 25 19 25 19 5 34 -11 8 -32 18 -47 21 -21 5
-28 13 -28 31 0 27 25 32 77 14 24 -9 39 -7 76 9 26 11 47 26 47 34 0 18 -38
53 -73 66 -24 10 -32 7 -67 -25 -29 -26 -46 -35 -67 -32 -26 3 -28 7 -33 53
-9 83 -30 98 -57 40 -14 -30 -15 -44 -6 -88 10 -44 9 -57 -6 -87 -26 -51 -54
-51 -70 -1 -12 40 -51 81 -79 81 -22 0 -10 -68 28 -164 47 -116 43 -198 -15
-320 -20 -42 -42 -52 -66 -30 -23 21 -24 44 -3 81 15 26 15 31 1 66 -19 45
-42 51 -32 8 14 -65 -38 -43 -70 30 -18 38 -18 42 -2 69 9 15 17 37 17 47 0
22 -63 87 -73 77 -4 -4 -7 -33 -7 -64 0 -31 -3 -60 -6 -63 -12 -11 -42 12 -65
50 -36 60 -60 83 -90 83 -25 0 -27 -2 -27 -50 0 -46 2 -51 27 -56 67 -13 99
-25 115 -43 24 -26 13 -41 -30 -41 -28 0 -36 -5 -45 -27 -21 -55 8 -61 90 -19
38 20 63 14 91 -21 34 -43 27 -57 -25 -50 -43 6 -115 -15 -115 -33 0 -4 18
-15 41 -25 34 -16 45 -17 73 -7 18 7 44 12 58 12 23 0 29 -7 44 -52 22 -68 23
-134 1 -156 -16 -15 -19 -15 -44 4 -17 13 -29 33 -31 50 -4 36 -25 60 -63 73
-37 13 -37 1 -4 -58 37 -64 34 -75 -21 -68 -54 6 -78 -13 -89 -70 -8 -45 -1
-52 28 -25 39 37 49 29 42 -30 -7 -63 6 -92 29 -68 8 8 28 47 43 85 23 57 33
71 53 73 28 5 50 -20 50 -57 0 -37 -53 -144 -83 -168 -28 -22 -53 -32 -137
-58 -30 -9 -84 -32 -119 -51 -35 -20 -67 -32 -70 -27 -4 4 -5 59 -2 122 l6
114 43 15 c45 15 72 52 87 120 6 29 4 32 -16 32 -14 0 -38 -18 -65 -46 -23
-26 -47 -43 -53 -40 -14 9 -14 66 -1 100 8 22 16 26 49 26 49 0 87 31 96 79 7
31 5 33 -11 26 -82 -34 -114 -37 -114 -10 0 15 42 51 70 60 11 3 22 15 25 27
9 26 -14 110 -29 105 -6 -2 -30 -31 -53 -66 -30 -44 -43 -73 -43 -98 0 -37
-15 -73 -30 -73 -5 0 -17 14 -25 30 -14 27 -67 70 -87 70 -12 0 -10 -52 3 -88
6 -17 30 -47 54 -67 32 -25 46 -46 51 -71 9 -51 -10 -67 -39 -33 -23 27 -57
49 -78 49 -17 0 -4 -68 18 -92 10 -11 28 -24 41 -29 29 -11 47 -56 33 -85 -11
-25 -118 -86 -141 -81 -10 2 -14 12 -12 35 3 34 -24 92 -44 92 -23 0 -25 -66
-4 -119 23 -60 25 -94 6 -110 -10 -9 -19 -4 -39 23 -28 36 -75 53 -84 30 -10
-26 38 -85 85 -105 45 -19 45 -19 39 -62 -7 -52 -44 -87 -92 -87 -37 0 -114
56 -134 98 -25 51 -2 165 50 246 48 74 107 188 124 237 9 24 20 86 25 137 6
52 16 120 24 151 15 60 31 280 44 607 8 201 8 202 37 245 29 41 96 96 134 111
12 4 32 -3 56 -20 45 -32 124 -38 151 -11 15 16 13 19 -29 44 -26 14 -62 31
-82 36 -19 6 -35 16 -35 24 0 25 53 77 97 96 28 12 47 28 53 44 12 33 13 132
1 139 -5 3 -32 -19 -60 -50 -36 -40 -51 -64 -51 -84 0 -38 -17 -80 -42 -107
-33 -36 -41 -28 -34 31 6 54 1 86 -14 86 -12 0 -37 -71 -50 -141 -12 -67 -28
-92 -72 -115 -39 -20 -48 -18 -48 12 0 37 49 211 71 256 10 20 53 72 95 115
42 43 103 110 135 150 89 108 186 173 259 173 93 0 169 -81 188 -201 10 -70 6
-88 -23 -95 -35 -9 -95 -79 -95 -110 l0 -26 36 32 c39 33 73 50 105 50 14 0
19 -7 19 -30 0 -35 -28 -67 -65 -75 -14 -3 -36 -7 -50 -10 -26 -5 -71 -77 -60
-95 8 -12 89 17 111 41 21 24 44 25 44 2 0 -10 -9 -42 -20 -70 -17 -45 -18
-60 -9 -102 12 -58 41 -91 67 -75 9 6 26 27 37 47 l20 36 -33 66 c-35 72 -40
106 -17 125 12 10 18 5 34 -33 15 -35 30 -51 61 -67 23 -12 44 -19 48 -16 10
10 -50 110 -95 159 -30 32 -43 55 -41 70 5 35 40 33 63 -3 22 -35 63 -60 95
-60 25 0 60 17 60 29 0 12 -139 101 -156 101 -8 0 -29 8 -49 17 -38 18 -42 29
-64 147 -6 32 -8 63 -5 67 8 14 45 11 98 -7 42 -14 47 -19 41 -38 -13 -36 -9
-76 10 -96 25 -28 35 -25 35 11 0 44 21 110 37 116 8 3 22 -2 33 -12 18 -16
18 -20 5 -46 -25 -47 -19 -101 13 -132 15 -15 33 -27 39 -27 16 0 26 101 13
134 -13 34 -13 33 5 40 23 9 72 -40 79 -79 4 -20 20 -50 36 -68 28 -33 103
-67 117 -54 3 4 -2 33 -13 64 -22 66 -71 123 -106 123 -28 0 -68 26 -68 44 0
16 31 26 77 26 37 0 87 40 98 79 7 22 5 23 -27 16 -30 -6 -58 -22 -125 -71
-29 -21 -121 -24 -133 -4 -12 20 -6 27 45 49 44 19 80 67 73 97 -5 24 -107
-31 -159 -87 -42 -46 -48 -49 -95 -49 -87 0 -264 70 -264 105 0 15 4 16 109
34 49 8 81 21 131 55 97 64 157 93 293 137 190 63 290 63 351 0 22 -23 28 -41
35 -101 7 -70 10 -75 51 -112 23 -21 46 -38 51 -38 13 0 11 58 -2 83 -7 12
-30 38 -51 59 -31 28 -39 42 -36 65 8 75 86 11 147 -123 27 -58 32 -80 29
-130 -3 -58 -4 -59 -38 -70 -23 -8 -39 -21 -47 -40 -27 -64 -7 -82 48 -43 37
26 63 22 67 -13 2 -19 -4 -31 -23 -45 -61 -42 -76 -59 -81 -93 -4 -23 0 -42
10 -55 16 -20 16 -20 28 0 44 74 91 79 70 7 -7 -22 -12 -49 -12 -60 0 -42 102
-111 121 -81 21 34 10 76 -36 127 -25 27 -45 57 -45 66 0 26 31 18 59 -14 18
-21 39 -32 69 -36 25 -4 42 -3 42 3 0 9 -95 102 -153 150 -20 16 -27 31 -27
57 0 47 16 46 61 -4 28 -30 44 -40 67 -40 17 0 34 5 38 11 10 17 -53 75 -110
102 -37 18 -56 35 -68 58 -24 51 -51 170 -40 181 5 5 43 -2 93 -18 158 -50
155 -47 114 -96 -14 -16 -25 -39 -25 -50 0 -21 72 -98 91 -98 7 0 8 22 4 64
-12 105 13 133 71 82 26 -21 27 -25 15 -53 -15 -36 -8 -69 24 -109 28 -35 36
-29 42 33 7 78 12 93 32 93 10 0 26 -9 36 -20 16 -17 16 -25 5 -64 -6 -24 -9
-57 -5 -74 7 -35 70 -112 91 -112 19 0 18 96 -1 130 -17 30 -19 60 -4 60 29 0
98 -72 119 -123 29 -69 59 -87 160 -96 128 -11 128 -5 15 102 -81 75 -85 77
-134 77 -38 0 -56 5 -72 21 -28 28 -20 43 30 50 23 3 49 13 58 22 15 15 15 18
-1 36 -34 37 -69 45 -135 28 -74 -19 -153 -5 -159 27 -5 26 14 36 70 36 40 0
50 4 67 28 11 16 23 41 27 57 6 25 5 27 -12 20 -10 -4 -40 -12 -67 -18 -33 -7
-56 -19 -76 -42 -51 -58 -100 -71 -141 -37 -29 23 -20 39 30 52 21 6 48 22 59
37 21 25 29 93 13 93 -20 0 -129 -79 -150 -108 -17 -24 -30 -32 -53 -32 -57 0
-154 31 -214 69 -33 21 -98 62 -144 91 -67 42 -96 54 -140 59 -40 4 -57 11
-59 22 -7 35 142 187 172 176 8 -3 17 -30 21 -61 5 -43 12 -60 28 -70 24 -15
77 -30 77 -21 0 2 -18 42 -40 89 -22 46 -40 89 -40 95 0 13 33 31 58 31 22 0
32 -18 32 -56 0 -25 54 -94 65 -83 3 4 1 35 -4 70 -12 73 -6 86 36 72 27 -10
28 -12 25 -66 -2 -31 2 -66 8 -78 11 -19 77 -55 86 -47 2 2 -6 35 -17 72 -16
52 -18 71 -9 80 8 8 18 3 36 -19 73 -90 65 -85 148 -85 42 0 76 4 76 9 0 5
-22 32 -49 60 -47 49 -51 50 -112 53 -60 3 -64 4 -64 27 0 20 7 27 35 34 38 9
90 52 90 74 0 37 -165 -4 -210 -52 -31 -33 -100 -36 -100 -5 0 11 12 27 26 36
40 27 83 124 54 124 -19 0 -85 -37 -105 -60 -11 -12 -27 -42 -36 -68 -14 -42
-19 -47 -69 -64 -30 -10 -58 -14 -62 -10 -5 5 -2 28 7 51 19 55 19 92 0 138
-19 45 -34 35 -65 -46 -18 -49 -20 -63 -10 -81 25 -46 30 -81 16 -109 -25 -47
-190 -199 -240 -220 -69 -30 -231 -72 -249 -65 -9 3 -25 21 -36 39 -11 19 -32
42 -48 52 -40 25 -41 28 -29 83 9 46 8 52 -14 75 -38 41 -53 33 -46 -22 12
-94 12 -97 -6 -101 -9 -2 -37 15 -61 37 -35 32 -52 41 -80 41 -20 0 -38 -3
-41 -8 -9 -15 24 -44 71 -61 63 -22 65 -49 5 -69 -73 -24 -97 -92 -32 -92 24
0 44 12 84 50 65 61 101 66 147 21 44 -44 38 -62 -40 -120 -83 -62 -108 -72
-236 -101 -117 -26 -142 -38 -189 -86 -37 -38 -66 -41 -66 -6 0 35 40 135 84
211 25 42 59 119 77 171 42 120 87 171 170 190 30 6 85 26 123 43 66 30 70 30
80 13 28 -47 42 -57 94 -63 28 -3 52 -2 52 3 0 19 -40 73 -69 95 -39 28 -39
42 -2 68 42 30 70 27 83 -9 5 -17 23 -37 39 -45 29 -15 79 -20 79 -8 0 4 -18
28 -40 54 -35 41 -51 79 -35 79 3 0 32 -11 65 -25 76 -32 92 -31 129 6 39 38
39 53 0 69 -42 18 -80 15 -129 -10 -42 -22 -80 -20 -80 4 0 8 6 29 14 47 14
35 8 70 -14 84 -8 5 -1 18 20 40 l31 32 -59 21 c-32 12 -64 22 -69 22 -6 0
-30 -16 -54 -35 -24 -19 -52 -35 -62 -35 -17 0 -18 7 -11 73 11 111 14 117 74
117 89 0 150 50 150 122 l0 38 -52 -26 c-29 -15 -65 -35 -80 -46 -16 -11 -32
-16 -38 -13 -18 11 -11 60 15 97 14 20 25 46 25 58 0 19 -55 140 -64 140 -8 0
-76 -151 -76 -170 0 -12 11 -38 25 -58 28 -42 34 -106 10 -115 -14 -6 -22 2
-68 68 -15 20 -26 25 -62 25 -24 0 -46 -4 -49 -8 -10 -17 27 -54 80 -79 67
-32 84 -54 84 -113 0 -54 -11 -73 -36 -68 -15 2 -20 15 -24 53 -3 28 -9 55
-13 62 -8 12 -98 46 -105 39 -12 -12 26 -85 69 -132 34 -38 49 -63 49 -82 -1
-38 -32 -104 -83 -170 -24 -31 -56 -87 -71 -125 -32 -77 -41 -86 -64 -63 -11
11 -18 43 -22 103 -5 83 -4 91 22 142 31 58 35 111 14 150 -14 24 -14 24 -32
-32 -9 -31 -23 -58 -31 -61 -28 -11 -77 102 -62 142 15 40 10 88 -14 122 -22
34 -79 75 -95 68 -5 -1 -1 -34 9 -73 9 -38 14 -74 9 -78 -11 -12 -59 15 -99
57 -28 29 -42 36 -73 36 -36 0 -128 -37 -128 -51 0 -4 25 -20 54 -35 52 -26
58 -27 107 -16 39 9 55 9 65 1 22 -18 16 -36 -15 -49 -28 -11 -71 -73 -59 -85
3 -4 19 0 35 9 16 8 60 16 97 18 64 2 70 1 92 -25 25 -29 33 -87 13 -87 -6 0
-32 12 -58 26 -54 31 -105 28 -136 -6 -17 -19 -17 -20 11 -31 16 -6 61 -13 99
-14 128 -4 135 -15 138 -213 2 -127 -1 -154 -19 -202 -24 -64 -56 -79 -75 -36
-10 21 -8 29 10 52 24 30 28 90 8 118 -12 16 -15 15 -30 -21 -9 -21 -21 -51
-27 -66 -13 -36 -41 -33 -54 6 -8 21 -5 37 12 72 31 65 29 98 -11 142 -20 21
-39 33 -45 29 -7 -4 -12 -32 -12 -66 0 -32 -4 -62 -10 -65 -13 -8 -47 11 -94
53 -37 33 -42 34 -96 29 -92 -8 -99 -17 -43 -55 26 -17 59 -40 73 -51 l25 -20
-32 -33 c-18 -19 -33 -36 -33 -38 0 -3 26 -5 58 -6 31 -1 84 -5 117 -10 55 -8
60 -11 60 -34 0 -17 -5 -24 -15 -22 -8 2 -38 6 -67 9 -49 5 -53 4 -83 -28 -28
-31 -29 -35 -13 -46 27 -20 94 -15 151 12 67 31 93 31 120 3 45 -49 37 -103
-32 -192 -20 -26 -36 -57 -36 -69 -1 -50 -32 -166 -60 -224 -32 -64 -59 -84
-85 -63 -22 18 -18 41 15 80 35 41 39 86 11 121 -27 33 -43 15 -49 -56 -5 -65
-25 -74 -47 -21 -8 19 -25 42 -37 50 -22 16 -68 22 -68 10 0 -16 43 -73 65
-88 14 -9 25 -25 25 -36 0 -17 -7 -20 -41 -20 -50 0 -71 -11 -100 -51 l-22
-31 49 7 c27 4 71 14 98 23 48 17 48 16 67 -7 10 -13 19 -30 19 -37 0 -8 -33
-49 -74 -92 -40 -42 -85 -100 -100 -129 -14 -28 -30 -55 -36 -58 -6 -4 -26 7
-46 24 -27 24 -44 31 -77 31 -45 0 -87 22 -87 46 0 9 11 14 31 14 37 0 68 15
91 44 28 34 22 46 -21 46 -53 0 -83 -13 -117 -49 -29 -30 -29 -30 -116 -24
-107 7 -111 16 -37 88 28 28 65 70 81 95 17 25 42 57 56 72 l26 28 44 -26 c53
-31 82 -27 123 19 38 42 37 53 -8 54 -21 1 -62 2 -90 2 -29 1 -53 5 -53 10 0
5 16 35 35 67 19 33 38 66 43 74 8 13 14 12 49 -4 27 -12 51 -16 71 -12 33 8
76 49 87 84 6 21 4 22 -47 22 -32 0 -62 -6 -74 -15 -38 -29 -47 -20 -40 41 7
63 17 85 57 132 16 18 29 41 29 51 0 25 -28 91 -39 91 -10 0 -51 -52 -71 -89
-10 -20 -9 -32 5 -76 21 -61 12 -108 -23 -113 -19 -3 -22 1 -22 31 0 42 -33
75 -87 88 -70 16 -76 6 -33 -59 21 -31 52 -70 69 -86 35 -33 39 -67 17 -119
-28 -69 -76 -84 -76 -24 0 36 -39 91 -80 112 -45 23 -53 20 -46 -21 8 -40 -5
-64 -36 -64 -10 0 -30 -11 -43 -25 -20 -19 -25 -34 -25 -73 0 -33 -6 -57 -18
-72 -22 -28 -38 -21 -47 20 -9 39 -51 90 -76 90 -28 0 -24 -20 21 -105 40 -75
40 -76 23 -108 -9 -18 -19 -69 -23 -115 l-7 -83 -90 -92 c-57 -58 -101 -112
-118 -147 -40 -82 -67 -112 -125 -144 -70 -38 -79 -28 -57 61 9 38 19 106 22
153 11 159 22 197 81 261 48 53 74 105 74 151 0 10 14 23 33 31 46 20 59 39
55 87 l-3 42 -39 -31 c-53 -42 -70 -38 -74 20 -3 40 0 47 23 57 33 15 48 55
40 105 l-7 39 -29 -28 c-16 -15 -33 -42 -40 -61 -17 -54 -60 -42 -74 22 -14
61 -18 67 -51 81 -58 24 -65 20 -46 -27 10 -27 29 -49 54 -65 22 -14 38 -32
38 -43 0 -17 -7 -19 -62 -18 -50 2 -63 -1 -63 -13 0 -19 57 -39 113 -39 46 -1
82 -27 82 -61 0 -18 -5 -19 -60 -13 -75 7 -77 -4 -9 -48 89 -57 97 -76 53
-128 -26 -32 -74 -43 -74 -18 0 7 -7 38 -16 67 -13 43 -28 64 -73 106 -31 29
-68 74 -80 100 -21 41 -23 57 -19 128 3 44 13 98 22 119 21 50 74 117 92 117
8 0 22 -16 30 -35 15 -36 65 -75 97 -75 9 0 17 5 17 10 0 21 -31 83 -56 113
l-26 31 21 18 c31 25 46 14 75 -53 26 -59 69 -99 109 -99 22 0 22 22 -3 70
-11 22 -20 42 -20 45 0 11 31 4 62 -15 18 -11 47 -20 63 -20 32 0 95 33 95 49
0 6 -20 22 -43 36 -36 20 -57 25 -115 25 -39 0 -82 4 -96 10 -33 12 -34 43 -1
64 41 27 50 57 30 97 l-18 33 -38 -41 c-20 -22 -43 -59 -49 -81 -12 -46 -51
-82 -88 -82 -21 0 -23 3 -17 23 16 53 15 63 -7 96 -13 19 -27 34 -33 34 -5 -1
-16 -22 -24 -46 -12 -40 -12 -53 2 -104 l17 -58 -27 -39 c-34 -47 -58 -65 -72
-51 -10 10 18 225 38 294 32 106 193 291 308 353 105 57 294 81 361 45 40 -22
41 -45 2 -82 -25 -24 -30 -37 -28 -65 4 -51 28 -44 61 18 31 57 48 64 71 30
24 -34 20 -50 -26 -89 l-43 -37 13 -58 c6 -32 16 -62 22 -68 17 -17 44 20 50
71 4 40 9 48 25 48 15 0 24 -12 36 -50 13 -38 27 -58 60 -82 51 -38 65 -40 72
-14 9 37 -5 73 -36 90 -50 27 -87 62 -87 81 0 30 16 32 59 9 40 -20 91 -20 91
0 0 5 -16 23 -35 40 -25 22 -46 31 -70 31 -43 0 -95 42 -95 77 0 22 3 25 28
19 82 -19 90 -18 121 3 41 29 39 49 -5 57 -32 6 -65 3 -176 -13 -27 -4 -46 1
-71 16 -19 12 -41 21 -48 21 -8 0 -31 5 -51 11 -27 7 -38 16 -38 29 0 25 14
29 85 23 55 -4 63 -2 103 27 62 46 57 61 -15 44 -32 -8 -66 -14 -75 -14 -31 0
-20 36 23 75 39 35 43 36 91 30 59 -8 128 16 128 45 0 22 -20 30 -75 30 -25 0
-47 6 -55 15 -13 15 -14 14 89 107 35 32 41 44 41 77 0 42 -18 65 -47 59 -23
-4 -73 -102 -73 -143 0 -21 -11 -44 -33 -70 -43 -49 -62 -43 -71 23 -9 67 -29
84 -50 43 -20 -38 -20 -52 1 -118 16 -50 16 -55 0 -88 -11 -24 -24 -35 -38
-35 -19 0 -20 4 -14 41 6 36 4 44 -21 70 -15 16 -33 29 -40 29 -25 0 -28 -68
-5 -130 20 -53 20 -62 8 -92 -19 -44 -42 -63 -99 -83 -116 -39 -179 -75 -253
-145 -76 -72 -92 -81 -101 -55 -12 29 7 65 46 90 50 31 67 58 75 118 9 62 -5
61 -51 -3 -22 -31 -43 -50 -52 -48 -34 7 -40 128 -7 128 7 0 26 10 41 23 22
19 25 28 19 55 -8 39 -25 51 -39 28 -30 -51 -43 -61 -60 -47 -9 7 -16 28 -16
46 0 32 13 50 53 70 33 17 59 61 61 101 2 61 -28 58 -85 -6 l-47 -53 -18 29
c-13 18 -19 47 -20 84 0 64 -14 94 -52 114 -39 20 -92 30 -92 17 0 -35 45
-123 80 -155 57 -53 48 -90 -13 -52 -35 22 -67 29 -67 15 0 -22 51 -79 93
-106 52 -31 76 -61 77 -90 0 -30 -15 -29 -52 2 -32 27 -88 34 -88 12 0 -20 34
-47 99 -82 39 -21 56 -36 56 -50 0 -22 -4 -22 -78 -4 -27 6 -51 8 -54 5 -10
-10 38 -75 73 -96 49 -31 64 -57 64 -116 0 -55 -21 -124 -68 -222 -18 -37 -32
-88 -37 -126 -9 -87 -24 -98 -64 -49 -17 21 -40 62 -51 91 -11 29 -29 71 -40
92 -26 52 -25 76 5 112 14 16 25 39 25 51 0 27 -41 101 -55 99 -5 -1 -12 -22
-15 -46 -3 -25 -9 -49 -14 -53 -10 -11 -34 23 -48 70 -9 31 -9 44 5 73 18 37
23 139 8 149 -19 11 -41 -39 -41 -92 0 -28 -5 -55 -10 -58 -16 -10 -58 22 -88
67 -15 22 -37 51 -48 64 -21 22 -24 22 -78 10 -31 -8 -60 -17 -63 -20 -15 -14
38 -49 102 -67 76 -21 109 -39 125 -69 16 -29 -12 -37 -53 -15 -33 17 -103 18
-101 0 2 -18 75 -53 134 -64 39 -8 64 -20 82 -39 62 -66 58 -110 -7 -79 -39
19 -81 22 -90 8 -8 -13 71 -57 116 -65 36 -6 67 -32 88 -73 26 -50 -1 -58 -56
-15 -19 15 -67 43 -106 62 -57 28 -73 40 -75 60 -2 14 -11 33 -20 44 -14 14
-79 54 -124 74 -12 5 -10 -34 2 -60 6 -13 26 -33 45 -45 48 -32 38 -53 -25
-53 -26 0 -62 -3 -79 -6 -27 -6 -36 -1 -69 33 -20 22 -44 43 -53 46 -20 7
-123 -39 -115 -51 3 -5 30 -17 61 -26 80 -26 72 -57 -17 -70 -55 -8 -88 -41
-88 -87 0 -46 48 -35 103 23 37 40 53 32 49 -26 -2 -25 1 -46 7 -46 13 0 58
55 80 99 28 54 55 73 111 79 44 4 50 2 50 -15 0 -12 -13 -25 -34 -35 -37 -18
-68 -78 -40 -78 21 0 88 35 105 56 17 21 70 44 100 44 61 0 257 -166 296 -250
11 -25 26 -71 33 -104 10 -50 10 -61 -3 -74 -14 -14 -21 -11 -72 23 l-56 39 3
64 c2 59 0 66 -25 88 -16 14 -41 24 -58 24 -27 0 -29 -3 -29 -37 0 -21 9 -51
20 -68 20 -30 27 -65 13 -65 -17 0 -99 35 -115 48 -10 9 -18 29 -18 47 0 37
-29 79 -70 100 -29 15 -91 20 -103 9 -11 -11 33 -64 75 -90 78 -50 60 -77 -47
-68 -84 7 -118 -4 -145 -48 -23 -39 -28 -118 -6 -118 7 0 43 32 79 70 40 43
74 70 86 70 25 0 29 -31 7 -49 -19 -16 -37 -69 -26 -76 10 -6 103 39 155 74
36 25 78 27 96 5 10 -13 10 -17 -2 -25 -8 -5 -22 -9 -31 -9 -26 0 -58 -48 -58
-88 0 -34 0 -35 38 -29 28 5 48 18 82 57 36 40 51 50 76 50 59 0 114 -77 114
-159 0 -43 39 -107 105 -172 107 -105 134 -201 94 -341 -12 -46 -28 -89 -35
-97 -16 -18 -34 -5 -34 25 0 43 -29 84 -85 119 -60 39 -79 43 -71 18 3 -10 10
-38 16 -63 7 -25 21 -55 32 -67 29 -31 20 -54 -30 -68 -74 -22 -74 -23 -62
-45 17 -32 60 -48 127 -48 33 0 74 -6 90 -14 24 -12 28 -19 27 -51 -1 -22 -16
-66 -37 -105 -40 -76 -57 -153 -57 -253 0 -37 -5 -71 -10 -74 -6 -4 -25 6 -43
21 -35 30 -143 84 -167 84 -37 0 -169 53 -191 76 l-24 25 53 46 c51 44 52 46
52 98 0 30 -4 56 -8 59 -10 6 -74 -59 -91 -91 -13 -25 -37 -31 -43 -11 -3 7 5
49 16 95 20 81 20 85 2 117 -15 29 -69 66 -96 66 -6 0 -10 -23 -10 -50 0 -52
16 -96 44 -119 21 -18 23 -121 2 -121 -7 0 -20 7 -27 16 -19 23 -55 34 -89 28
-38 -8 -38 -17 1 -65 22 -28 43 -42 73 -50 32 -8 53 -23 80 -54 40 -49 43 -60
20 -69 -40 -15 -82 -5 -147 38 -80 51 -88 61 -111 145 l-17 64 42 43 c45 46
61 97 48 148 -9 33 -38 68 -50 60 -22 -13 -49 -87 -49 -133 0 -27 -4 -52 -9
-56 -9 -5 -91 93 -91 108 0 3 19 25 41 47 38 38 41 44 35 80 -8 50 -26 90 -40
90 -18 0 -76 -114 -76 -148 0 -17 -4 -34 -10 -37 -15 -9 -129 45 -141 67 -6
10 -8 27 -4 37 8 26 232 244 246 239 6 -2 17 -19 23 -38 11 -34 69 -84 90 -77
6 2 12 21 14 43 3 35 -1 42 -39 75 -50 42 -45 59 15 59 54 0 66 -13 66 -71 0
-42 4 -50 40 -83 67 -61 73 -47 24 62 -20 46 -21 54 -8 59 25 9 66 -19 93 -66
43 -74 54 -81 121 -81 47 0 60 3 60 15 0 24 -94 115 -118 115 -30 0 -83 23
-105 45 -22 21 -7 45 28 45 44 0 86 80 49 94 -51 20 -112 -11 -129 -64 -6 -19
-22 -24 -107 -36 -43 -6 -48 -4 -48 14 0 10 9 31 20 45 22 27 26 71 10 111
-13 35 -36 33 -60 -6 -16 -27 -19 -43 -14 -84 10 -81 -47 -184 -102 -184 -25
0 -34 23 -34 92 0 26 -7 82 -17 123 l-16 76 46 43 c41 38 47 48 47 84 0 32 -6
45 -26 61 -34 27 -44 19 -44 -32 0 -82 -35 -88 -72 -13 l-21 45 41 45 c46 50
51 75 28 131 -12 28 -18 33 -38 28 -40 -10 -48 -23 -48 -79 0 -29 -4 -56 -10
-59 -18 -11 -68 24 -104 74 -32 43 -43 51 -81 56 -44 7 -105 -1 -105 -14 0
-10 70 -74 104 -96 l30 -18 -39 -33 c-22 -18 -37 -35 -35 -37 17 -14 83 -27
142 -27 62 0 72 -3 93 -26 43 -46 26 -85 -21 -49 -37 28 -102 15 -156 -30 -38
-32 -93 -33 -125 -3 -27 25 -35 19 -53 -34 -6 -21 -16 -41 -22 -44 -15 -9 -35
20 -43 62 -5 30 -2 40 24 70 32 36 38 68 25 133 -5 24 -12 31 -29 31 -31 0
-43 -18 -52 -80 -9 -58 -22 -70 -47 -45 -11 11 -16 34 -16 69 0 29 -6 59 -12
68 -17 20 -98 78 -111 78 -6 0 -8 -26 -4 -66 5 -68 27 -106 69 -120 22 -7 43
-43 31 -54 -4 -5 -26 -4 -49 2 -23 6 -50 8 -60 4 -17 -7 -16 -10 14 -37 26
-23 42 -29 78 -29 40 0 51 -5 80 -36 23 -24 34 -45 34 -65 0 -36 -4 -36 -43
-3 -23 20 -36 24 -56 18 -69 -20 -80 -14 -131 70 -45 74 -77 155 -100 251 -7
28 -27 58 -69 101 -68 69 -82 110 -62 182 22 84 59 130 162 207 99 74 152 95
199 80 29 -9 25 -32 -15 -69 -28 -26 -35 -41 -35 -70 0 -46 14 -46 67 -1 43
36 68 44 76 23 8 -23 -12 -46 -49 -58 -42 -14 -74 -60 -74 -107 0 -41 7 -41
55 -3 47 37 67 27 46 -23 -24 -58 -25 -94 -1 -132 12 -19 23 -35 26 -35 2 0
17 19 34 42 33 45 38 82 15 112 -19 25 -20 76 -2 76 8 0 24 -11 37 -25 18 -19
34 -25 67 -25 29 0 43 4 43 13 0 26 -65 87 -105 99 -34 11 -42 19 -55 55 -20
58 -5 74 43 44 19 -11 47 -21 63 -21 32 0 114 34 114 47 0 4 -25 21 -55 37
-55 28 -80 30 -157 11 -23 -6 -33 -2 -57 24 -19 20 -42 33 -70 37 -74 12 -46
43 77 85 79 27 139 69 205 144 l58 65 57 0 c64 0 103 19 152 72 26 30 28 34
13 46 -26 19 -56 15 -98 -14 -41 -27 -62 -21 -51 14 11 32 81 90 125 102 47
12 77 46 92 104 5 22 12 49 15 59 4 14 -1 17 -29 17 -35 0 -56 -17 -90 -72
-20 -32 -47 -37 -47 -9 0 10 7 35 15 54 34 81 12 158 -61 214 l-31 23 -7 -46z
m-243 -373 c13 -5 27 -21 31 -34 3 -14 22 -35 41 -47 77 -48 82 -70 31 -146
-28 -41 -49 -59 -113 -91 -43 -22 -103 -48 -133 -58 -80 -26 -109 -42 -169
-97 -51 -46 -56 -49 -68 -32 -30 41 -3 229 41 287 30 40 64 48 86 22 17 -20
100 -20 148 1 l37 15 -40 25 c-22 13 -50 24 -62 24 -56 0 -72 36 -27 61 25 13
28 12 50 -16 21 -26 30 -30 73 -30 76 0 84 16 33 68 -23 23 -42 46 -42 50 0
10 54 9 83 -2z m-1950 -441 c23 -27 53 -97 45 -105 -22 -22 -112 -73 -120 -69
-6 4 -18 25 -28 48 -18 39 -18 42 -1 71 10 16 21 42 25 58 9 38 46 36 79 -3z
m-235 -33 c34 -20 38 -44 6 -39 -70 11 -113 6 -137 -16 -26 -24 -54 -79 -45
-87 3 -3 21 2 41 10 20 8 58 15 84 15 26 1 59 7 73 15 34 19 47 18 70 -5 22
-22 28 -94 9 -106 -6 -3 -33 4 -60 16 -43 20 -53 22 -87 12 -37 -11 -91 -56
-80 -67 15 -15 124 -26 164 -16 55 14 70 7 93 -43 10 -22 35 -57 55 -75 33
-32 48 -71 28 -71 -27 0 -129 44 -160 68 -78 61 -115 69 -105 22 6 -35 6 -35
-81 -19 -239 43 -227 39 -278 89 -27 26 -48 55 -48 64 0 10 14 23 34 31 19 8
43 26 54 40 19 24 39 101 29 111 -11 12 -61 -11 -91 -42 -37 -38 -56 -43 -56
-15 0 47 20 72 77 98 57 25 60 25 140 13 72 -12 87 -11 120 3 72 30 91 29 151
-6z m5805 -14 c13 -7 37 -74 37 -102 0 -28 -35 -68 -78 -90 -18 -10 -23 -9
-28 4 -4 9 1 24 10 34 21 23 20 63 -2 91 l-19 23 -27 -49 c-16 -27 -31 -73
-35 -104 -8 -68 -12 -74 -64 -104 -57 -34 -124 -45 -133 -22 -12 32 45 154
102 218 30 33 54 65 54 71 0 6 8 19 17 29 15 16 26 18 87 12 39 -4 74 -9 79
-11z m-5307 -151 c67 -46 82 -67 70 -98 -5 -12 -10 -13 -28 -3 -40 21 -128
111 -128 130 0 27 9 24 86 -29z m-122 -39 c148 -140 196 -235 196 -390 0 -52
-4 -73 -12 -73 -23 0 -173 125 -223 186 -28 33 -73 85 -102 117 -66 73 -72
110 -20 132 19 8 46 30 61 49 15 20 30 36 33 36 3 0 34 -26 67 -57z m937 -167
c107 -43 172 -89 276 -195 95 -96 105 -111 133 -185 54 -143 83 -199 144 -276
104 -132 146 -255 146 -429 0 -122 -6 -141 -43 -141 -16 0 -18 4 -12 23 25 76
9 147 -32 143 -13 -1 -19 10 -25 43 -4 24 -10 47 -14 50 -3 3 -21 -11 -41 -32
-48 -53 -63 -44 -63 39 0 64 -1 68 -40 107 -25 24 -44 37 -50 31 -5 -5 -12
-38 -16 -75 l-6 -65 41 -48 c59 -68 57 -101 -8 -140 -37 -22 -51 -37 -55 -59
-12 -58 -8 -67 24 -67 23 0 30 -5 30 -19 0 -16 10 -20 58 -25 31 -4 73 -2 92
4 19 5 62 10 96 10 78 0 105 -20 144 -106 16 -35 49 -91 75 -124 63 -82 59
-94 -29 -91 -39 1 -82 9 -97 17 -45 23 -87 18 -120 -15 -33 -34 -42 -89 -11
-76 31 14 70 17 76 7 6 -10 -67 -87 -99 -105 -22 -12 -37 -71 -26 -100 11 -28
60 -77 77 -77 12 0 24 74 24 147 0 34 5 46 25 59 14 9 32 14 40 10 13 -5 13
-10 -2 -41 -16 -33 -16 -39 -2 -63 8 -15 27 -33 42 -42 42 -23 49 -3 42 106
-5 79 -4 94 11 109 25 25 83 13 112 -22 52 -63 57 -81 56 -203 0 -63 -5 -144
-10 -180 l-9 -65 -95 2 c-52 1 -104 2 -115 3 -11 0 -42 -3 -68 -6 -32 -4 -69
-1 -107 10 -31 9 -64 14 -73 10 -9 -3 -31 1 -49 10 -18 8 -70 27 -116 41 -107
34 -145 67 -194 172 -47 99 -58 156 -58 288 0 129 -13 173 -95 310 -71 120
-93 178 -101 270 -6 74 8 102 34 67 54 -72 59 -77 76 -63 22 18 20 30 -10 100
-22 50 -24 64 -14 76 20 25 49 18 56 -12 12 -57 16 -64 44 -78 39 -20 40 -20
40 15 0 35 8 37 52 10 37 -22 108 -27 108 -7 0 17 -38 79 -58 95 -9 6 -35 12
-58 12 -26 0 -47 6 -55 16 -12 15 -10 20 15 38 76 55 81 62 68 90 -23 51 -99
20 -122 -49 -6 -19 -17 -35 -24 -35 -7 0 -34 -11 -60 -25 -26 -14 -51 -25 -57
-25 -5 0 -9 20 -9 45 0 53 -21 90 -61 111 l-29 15 0 -79 c0 -45 7 -98 15 -122
12 -34 13 -50 4 -74 -8 -23 -8 -42 0 -71 6 -22 7 -43 2 -48 -16 -16 -42 7 -86
73 -24 38 -60 86 -79 108 -38 41 -58 88 -81 186 -18 76 -9 96 45 96 39 0 112
23 138 43 11 8 8 14 -13 25 -21 11 -37 11 -78 2 -40 -8 -53 -8 -64 3 -11 10
-10 17 3 35 13 19 22 21 49 16 27 -5 45 0 90 26 l56 32 -23 25 c-20 22 -29 24
-70 19 -57 -6 -60 3 -18 51 25 28 30 42 30 85 0 50 0 50 -28 45 -24 -5 -34 1
-70 43 -48 56 -47 77 8 100 33 13 60 2 60 -26 0 -18 70 -95 80 -89 22 14 20
59 -5 97 -14 22 -25 47 -23 56 7 38 142 37 239 -2z m3759 -15 c15 -28 13 -33
-10 -21 -11 6 -20 17 -20 25 0 21 17 18 30 -4z m-4179 -184 c41 -38 46 -48 53
-100 12 -104 -38 -135 -58 -36 -4 17 -19 35 -41 48 -28 16 -35 27 -35 50 0 34
16 81 27 81 5 0 29 -19 54 -43z m-118 -136 c9 -16 37 -49 62 -72 32 -31 45
-51 45 -70 0 -41 -16 -44 -62 -13 -32 23 -51 28 -97 29 l-56 0 -3 59 c-4 69
14 96 62 96 24 0 36 -7 49 -29z m3648 -182 c51 -51 71 -149 36 -177 -7 -6 -44
-8 -84 -5 -84 6 -93 20 -42 62 23 20 32 37 35 71 10 79 18 86 55 49z m-1913
-26 c48 -20 93 -42 99 -48 25 -21 54 -166 47 -230 -9 -88 -25 -116 -116 -215
-73 -79 -88 -90 -126 -96 -23 -3 -53 -15 -65 -24 -24 -20 -22 -22 34 -34 15
-3 30 -13 33 -22 3 -8 -12 -61 -33 -117 -22 -56 -43 -115 -48 -131 -5 -17 -14
-31 -20 -33 -16 -6 -118 144 -138 202 -34 103 -9 200 66 255 42 30 82 39 94
20 3 -5 28 -10 56 -10 42 0 55 5 86 33 49 45 38 60 -41 55 -60 -3 -61 -2 -60
22 1 14 9 43 17 65 16 43 26 46 93 30 25 -5 36 -2 62 20 18 15 32 30 32 35 0
4 -17 18 -37 30 -32 19 -42 21 -69 11 -17 -6 -33 -11 -37 -11 -12 0 -8 30 8
60 14 26 13 33 -1 69 -9 22 -24 43 -34 46 -23 7 -34 36 -18 47 19 12 22 11
116 -29z m-154 -76 c35 -66 45 -107 26 -107 -5 0 -17 11 -26 25 -20 31 -43 32
-78 4 l-27 -21 28 -18 c15 -10 43 -34 62 -53 34 -36 34 -37 20 -74 -20 -51
-45 -55 -53 -9 -9 46 -33 73 -80 88 -75 25 -76 84 -2 117 39 17 46 25 56 63
20 72 20 72 30 62 5 -5 25 -39 44 -77z m-1597 59 c15 -8 41 -18 58 -23 39 -11
55 -45 55 -115 0 -68 -6 -70 -73 -32 -58 32 -97 77 -97 112 0 15 -3 37 -6 50
-5 17 -2 22 14 22 11 0 33 -6 49 -14z m1339 -140 c26 -26 34 -43 34 -69 0 -44
-21 -64 -42 -39 -25 27 -69 122 -63 132 12 19 37 10 71 -24z m2286 -108 c-54
-51 -82 -59 -120 -32 -26 18 -27 27 -7 48 10 10 26 13 43 10 20 -4 39 4 77 30
49 35 50 36 53 14 3 -16 -10 -35 -46 -70z m-2143 -88 c45 -57 41 -74 -24 -106
-73 -36 -82 -28 -65 63 19 105 34 112 89 43z m2175 -90 c25 -9 26 -13 26 -87
0 -73 22 -163 40 -163 5 0 22 16 40 36 33 38 35 56 15 137 -6 22 -4 27 10 27
17 0 50 -32 128 -124 l39 -45 -22 -148 c-16 -105 -24 -212 -27 -368 -4 -238
-15 -298 -56 -311 -29 -9 -82 49 -72 80 17 48 17 114 0 145 -13 27 -19 30 -31
20 -25 -21 -34 3 -27 74 5 60 10 71 38 96 18 16 38 38 44 49 14 26 14 119 1
127 -14 9 -69 -54 -78 -90 -13 -49 -42 -44 -73 12 -14 27 -37 67 -50 89 l-23
41 28 34 c25 29 28 39 23 80 -3 26 -13 64 -22 85 l-16 38 -34 -62 c-23 -41
-35 -76 -35 -102 0 -21 -5 -42 -10 -45 -14 -9 -48 14 -95 64 -44 46 -83 58
-141 42 -23 -6 -42 -7 -48 -1 -17 17 42 95 125 165 112 94 227 134 303 105z
m-2605 -219 c12 -22 5 -31 -26 -31 -16 0 -23 6 -23 18 0 36 33 44 49 13z m825
-5 c12 -20 15 -18 -73 -68 -51 -28 -53 -31 -36 -44 10 -8 39 -14 63 -14 38 0
50 5 84 40 22 22 46 40 53 40 18 0 55 -48 55 -71 0 -11 -14 -25 -32 -35 -49
-24 -86 -63 -99 -102 -14 -44 -4 -52 51 -42 34 6 53 17 77 45 18 21 38 35 46
32 7 -3 19 -25 26 -48 19 -64 35 -84 96 -124 31 -19 58 -42 61 -50 7 -16 -39
-81 -68 -96 -16 -8 -28 -5 -59 16 -31 22 -45 26 -73 21 -42 -8 -131 -66 -131
-85 0 -21 54 -32 95 -21 43 12 97 13 104 1 7 -10 -101 -151 -115 -151 -6 0
-28 14 -49 32 l-40 31 -39 -18 c-45 -20 -109 -81 -97 -92 4 -5 44 -8 89 -9 74
0 82 -2 85 -20 4 -27 -27 -53 -101 -84 -61 -25 -62 -27 -80 -83 -20 -63 -35
-70 -72 -33 -47 47 -51 101 -29 356 5 63 2 89 -17 155 -18 62 -23 104 -23 190
-1 102 2 115 32 185 54 124 66 144 92 157 36 19 110 12 124 -11z m1412 -121
c53 -43 58 -45 102 -39 52 6 99 -7 108 -31 9 -24 -1 -29 -56 -26 -38 1 -54 -3
-70 -19 -56 -56 25 -81 127 -38 49 20 53 20 77 4 24 -15 66 -83 66 -106 0 -15
-23 -12 -70 9 -33 15 -49 17 -71 9 -24 -8 -27 -13 -19 -29 14 -26 91 -69 123
-69 15 0 37 -10 48 -21 19 -19 21 -30 16 -86 -3 -36 0 -81 5 -100 15 -53 -2
-62 -52 -28 -49 34 -60 52 -60 98 0 37 -23 63 -77 91 -46 23 -53 20 -53 -20 0
-29 7 -43 36 -69 22 -20 33 -38 29 -45 -10 -17 -69 -6 -104 19 -30 21 -76 27
-99 13 -13 -9 -62 -72 -62 -81 0 -12 166 -5 188 8 39 21 117 -7 81 -30 -8 -5
-26 -9 -41 -9 -32 0 -58 -32 -58 -73 l0 -29 38 23 c20 12 50 33 65 46 37 30
99 31 127 3 30 -30 17 -40 -56 -40 l-64 0 -29 -47 c-16 -26 -28 -50 -25 -54 2
-4 19 -10 38 -13 40 -8 98 13 136 48 55 51 84 54 110 12 8 -14 37 -39 64 -58
60 -40 70 -69 50 -141 -14 -49 -21 -91 -44 -251 -14 -92 -42 -156 -70 -156
-33 0 -57 52 -64 141 -9 98 -36 139 -93 139 l-34 0 20 -29 c12 -16 21 -34 21
-40 0 -7 9 -30 20 -52 24 -45 20 -59 -16 -59 -23 0 -84 52 -84 72 0 4 -15 10
-34 13 -34 7 -136 -28 -136 -46 0 -5 32 -23 70 -41 39 -18 70 -37 70 -43 0 -6
-7 -20 -15 -31 -8 -12 -11 -24 -8 -28 12 -12 94 -6 130 9 19 8 46 15 59 15 46
0 61 -79 28 -152 -17 -38 -19 -39 -52 -33 l-35 6 6 -55 c3 -31 1 -58 -4 -61
-13 -9 -44 11 -105 66 -60 54 -91 61 -147 32 l-32 -16 25 -10 c81 -31 98 -37
130 -43 101 -19 120 -65 30 -69 -30 -2 -66 -5 -80 -6 -20 -3 -26 1 -28 19 -3
21 -8 23 -50 20 -46 -3 -47 -2 -68 40 -11 24 -32 54 -47 68 -15 14 -27 27 -27
29 0 2 17 17 37 32 33 25 44 28 120 29 86 0 108 9 98 36 -9 22 -80 68 -106 68
-12 0 -49 -26 -86 -60 -48 -44 -73 -60 -94 -60 -37 0 -39 29 -4 74 29 38 34
110 11 142 -17 22 -15 23 -49 -36 -24 -41 -25 -49 -15 -88 10 -38 9 -46 -8
-62 -31 -29 -112 -72 -118 -62 -9 15 -28 152 -23 167 3 7 19 16 36 20 17 4 31
10 31 14 0 4 -16 23 -36 42 -34 32 -36 37 -32 87 6 67 29 98 104 140 32 18 68
44 79 57 33 40 50 32 61 -27 8 -47 13 -55 46 -73 20 -11 40 -16 44 -12 4 4 -1
34 -11 67 -10 33 -15 63 -12 66 13 14 37 -7 61 -54 21 -41 33 -53 76 -71 55
-24 70 -21 70 11 0 54 -58 118 -108 118 -25 0 -72 37 -72 56 0 8 14 20 30 26
17 5 35 18 40 28 11 21 13 73 4 83 -13 13 -62 -16 -104 -63 -32 -35 -54 -51
-74 -53 -32 -2 -42 11 -51 65 -4 28 -14 42 -39 57 -40 25 -56 26 -56 6 0 -25
35 -88 64 -114 14 -14 26 -31 26 -39 0 -23 -59 -71 -97 -78 -45 -8 -51 2 -51
85 -1 77 -28 298 -44 356 -16 54 -15 231 0 277 15 43 64 89 149 142 33 21 75
55 92 77 18 21 36 39 42 39 5 0 34 -20 65 -45z m-662 -372 c93 -49 183 -139
227 -229 l34 -69 -1 -189 -1 -190 -46 -40 c-34 -30 -47 -48 -47 -68 0 -39 -25
-58 -74 -58 -61 0 -73 18 -47 69 12 22 21 45 21 50 0 14 -52 61 -66 61 -17 0
-37 -93 -29 -138 6 -38 5 -40 -58 -95 -56 -49 -97 -71 -97 -51 0 3 14 38 31
77 28 62 32 84 33 160 l1 88 55 19 c56 19 120 75 120 105 0 27 -87 20 -131
-11 -49 -34 -63 -25 -54 35 9 63 19 71 79 71 58 0 78 15 111 79 23 47 8 58
-43 32 -73 -37 -98 -18 -42 32 24 22 30 35 30 68 0 47 -18 127 -31 135 -5 3
-27 -23 -50 -58 -38 -59 -40 -66 -34 -113 3 -28 3 -59 -1 -68 -8 -23 -36 -22
-51 3 -16 24 -70 53 -77 41 -10 -16 23 -104 50 -132 22 -23 27 -37 28 -83 1
-79 -15 -91 -59 -43 -19 20 -39 37 -45 37 -15 0 -87 -38 -95 -49 -11 -19 33
-49 90 -62 42 -9 63 -21 85 -46 27 -30 30 -41 30 -101 0 -70 -25 -139 -70
-192 l-20 -25 -30 35 c-33 38 -38 66 -15 96 26 34 19 89 -16 123 -51 51 -63
43 -55 -39 8 -80 -5 -92 -39 -37 -20 31 -23 32 -92 32 -39 0 -74 -3 -78 -7
-20 -20 60 -88 103 -88 37 0 37 -22 -1 -53 -21 -16 -37 -33 -37 -38 0 -15 75
-10 96 6 52 40 124 -6 124 -80 0 -62 -71 -165 -114 -165 -24 0 -82 84 -163
235 -37 69 -73 115 -161 207 -63 65 -112 124 -110 131 2 6 22 21 45 31 35 17
45 30 77 97 34 74 65 107 86 94 5 -3 28 -37 52 -75 24 -39 46 -70 50 -70 8 0
28 92 28 128 -1 34 -19 58 -53 71 -37 14 -34 38 14 104 42 59 79 76 79 37 0
-22 44 -115 58 -124 5 -3 19 31 31 76 l22 80 -25 27 c-33 35 -33 61 2 94 34
32 121 54 221 56 66 1 80 -3 145 -36z m-3670 -170 c29 -86 13 -143 -26 -90
-10 14 -34 36 -53 47 -20 12 -35 30 -35 40 0 24 37 50 71 50 23 0 29 -7 43
-47z m165 -18 c46 -50 50 -66 20 -96 -16 -16 -23 -18 -35 -8 -8 6 -14 22 -14
35 0 13 -13 39 -30 57 -36 42 -38 57 -6 57 15 0 38 -16 65 -45z m-295 -75 c14
-22 26 -49 26 -60 0 -17 -6 -20 -51 -20 l-52 0 6 50 c10 84 29 92 71 30z
m1576 -215 c47 -8 135 -21 195 -29 61 -8 132 -24 159 -35 26 -12 57 -21 69
-21 57 -1 59 -43 4 -82 -18 -12 -62 -50 -98 -85 l-66 -63 -26 20 c-59 46 -157
33 -207 -29 -17 -19 -30 -40 -30 -46 0 -14 149 -19 182 -6 37 14 52 0 42 -40
-5 -19 -9 -54 -9 -78 0 -42 -2 -45 -35 -53 -56 -14 -78 -29 -95 -63 -20 -44
-20 -95 0 -95 30 0 73 30 111 75 20 25 42 44 47 42 17 -5 39 -80 33 -115 -4
-27 0 -35 21 -49 22 -15 25 -22 20 -62 -5 -44 12 -103 34 -117 15 -9 59 98 59
144 0 37 -5 48 -36 76 -33 31 -35 34 -19 49 10 11 33 17 58 17 69 0 77 12 38
60 -46 57 -40 83 19 90 43 5 45 7 44 35 -1 17 -10 48 -20 70 l-19 40 -68 3
c-55 2 -67 6 -67 20 0 9 37 53 83 98 89 88 115 99 185 83 24 -5 53 -7 66 -3
12 3 53 -2 90 -10 37 -9 95 -16 129 -16 34 0 108 -11 164 -23 80 -18 115 -32
158 -62 31 -21 60 -46 65 -56 15 -27 -12 -134 -33 -133 -12 1 -15 -5 -10 -27
7 -35 -9 -37 -79 -13 -42 14 -49 14 -84 -1 -37 -16 -38 -17 -19 -31 29 -22 83
-34 151 -34 51 0 67 -5 100 -29 54 -39 76 -66 72 -88 -3 -13 -11 -17 -32 -15
-33 4 -56 -13 -56 -40 0 -11 -13 -39 -30 -63 -21 -31 -30 -55 -30 -84 0 -53
-15 -53 -76 2 l-47 43 26 45 c32 56 40 134 17 169 -9 13 -14 11 -35 -13 -19
-22 -25 -39 -25 -77 0 -85 -34 -77 -66 16 -26 77 -59 104 -129 104 -30 0 -57
-4 -60 -10 -3 -5 18 -34 48 -65 38 -39 61 -55 79 -55 29 0 88 -44 88 -65 0
-23 -18 -26 -56 -10 -52 21 -89 19 -121 -9 l-28 -24 45 -13 c25 -7 75 -13 112
-14 40 -1 75 -8 85 -16 67 -52 112 -93 117 -106 11 -28 -5 -34 -38 -13 -19 11
-45 20 -60 20 -29 0 -86 -25 -86 -38 0 -5 21 -18 46 -30 39 -19 56 -22 106
-16 59 7 60 6 98 -31 88 -86 108 -223 51 -345 -17 -36 -31 -71 -31 -77 0 -28
-30 -10 -80 50 -74 87 -77 97 -55 162 l18 54 -27 44 c-22 39 -78 87 -100 87
-12 0 3 -60 26 -112 12 -27 19 -51 15 -54 -10 -10 -52 4 -81 27 -26 20 -28 26
-22 71 8 56 -8 120 -36 145 -21 19 -30 12 -47 -36 -9 -29 -8 -39 9 -68 38 -64
19 -92 -40 -58 -35 20 -71 18 -100 -5 -33 -26 -68 -25 -110 4 -19 12 -91 37
-159 55 -69 18 -150 41 -180 53 -125 46 -202 70 -321 99 -82 21 -142 42 -173
62 -75 47 -98 97 -45 97 43 0 110 41 124 77 16 36 12 53 -12 53 -20 0 -17 16
11 57 13 20 22 41 18 46 -5 9 -60 5 -100 -8 -39 -13 -28 25 20 66 42 37 42 37
42 105 0 38 -4 78 -8 88 -7 18 -10 17 -43 -15 -54 -51 -67 -84 -60 -142 5 -36
3 -55 -9 -73 -25 -39 -45 -31 -45 19 0 46 -16 71 -67 105 -40 28 -43 28 -43
-8 0 -44 -15 -37 -54 25 -26 40 -48 61 -86 80 -46 23 -50 28 -50 61 0 68 34
96 63 51 8 -12 30 -38 49 -57 19 -19 37 -42 41 -50 11 -30 27 13 27 77 0 65
-17 94 -62 109 -46 14 0 86 85 131 80 42 232 54 377 28z m4938 -350 c4 -62
-11 -76 -71 -64 -23 4 -45 8 -49 9 -17 1 -6 34 23 72 26 33 37 39 63 36 30 -3
31 -5 34 -53z m-2547 -61 c21 -10 40 -35 60 -77 27 -58 29 -69 29 -187 -1
-172 -18 -241 -54 -211 -9 7 -43 58 -77 112 -33 54 -72 108 -86 119 -37 29
-133 25 -133 -5 0 -18 48 -55 72 -55 32 0 78 -29 78 -50 0 -26 -59 -37 -121
-21 -27 7 -53 9 -60 6 -18 -12 -49 -87 -49 -122 0 -51 33 -43 101 23 55 51 62
55 101 52 35 -2 44 -7 46 -24 3 -18 -5 -24 -40 -35 -51 -16 -81 -66 -76 -123
l3 -36 52 24 c43 20 56 33 75 72 13 27 28 50 35 52 7 2 24 -8 38 -22 20 -20
25 -35 25 -75 0 -41 -10 -71 -54 -158 -30 -60 -69 -139 -86 -178 -36 -80 -56
-106 -76 -98 -17 6 -55 77 -74 138 -26 79 -92 219 -137 289 -54 84 -93 163
-93 191 0 34 114 202 205 303 63 70 102 76 131 20 8 -16 31 -36 49 -44 34 -14
95 -19 95 -8 0 9 -57 89 -74 103 -9 8 -16 20 -16 27 0 19 73 18 111 -2z
m-2049 -31 c56 -54 49 -83 -21 -83 -30 0 -71 25 -71 43 0 16 38 77 47 77 4 0
24 -17 45 -37z m1115 -28 c29 -30 53 -63 53 -72 0 -10 -8 -44 -17 -76 -13 -42
-22 -57 -34 -55 -19 4 -149 154 -149 174 0 20 59 84 78 84 9 0 40 -25 69 -55z
m-2037 -29 c0 -11 -14 -47 -31 -79 -27 -51 -30 -65 -24 -107 10 -70 -9 -70
-41 0 -15 34 -40 70 -56 81 -17 13 -28 29 -28 44 0 20 7 25 35 31 20 3 54 22
77 40 44 37 68 33 68 -10z m92 24 c14 -10 31 -33 38 -50 12 -28 14 -29 30 -15
9 8 21 15 26 15 16 0 62 -121 68 -177 7 -70 -8 -82 -64 -53 l-41 21 -43 -21
c-57 -27 -84 -56 -68 -72 16 -16 77 -15 133 2 64 19 93 8 125 -45 14 -25 24
-51 21 -59 -3 -8 -25 -17 -49 -21 -24 -4 -60 -16 -80 -26 -59 -30 -104 -25
-156 18 -73 60 -94 139 -46 184 14 13 35 39 46 57 22 35 21 79 -2 187 -5 27
-8 55 -5 62 7 19 39 16 67 -7z m-2224 -62 c4 -94 -5 -111 -75 -136 -32 -12
-67 -28 -78 -36 -17 -12 -24 -12 -46 0 -41 21 -42 39 -3 100 25 39 47 60 72
71 21 8 52 29 70 45 19 16 39 27 45 25 7 -2 13 -31 15 -69z m5462 -135 c19
-26 54 -58 78 -71 36 -20 42 -28 42 -55 0 -41 -34 -115 -56 -124 -21 -8 -34
14 -27 49 4 21 -1 34 -25 58 -17 16 -38 30 -46 30 -25 0 -20 -69 9 -124 28
-52 31 -92 11 -118 -20 -26 -36 -22 -36 10 0 37 -17 52 -58 52 l-35 0 6 -41
c3 -22 17 -57 31 -78 30 -43 34 -91 8 -114 -51 -46 -166 -73 -178 -42 -4 8 5
50 19 93 33 101 55 207 66 312 12 129 60 210 124 210 27 0 38 -8 67 -47z
m1548 5 c7 -7 12 -22 12 -35 0 -14 12 -31 31 -45 34 -25 71 -92 62 -115 -7
-18 -26 -16 -67 8 -35 21 -88 20 -101 -2 -10 -16 58 -49 101 -49 48 0 67 -17
62 -57 -3 -25 -6 -28 -38 -25 -129 10 -146 14 -182 43 -20 16 -39 29 -41 29
-12 0 -15 -49 -5 -83 18 -60 -1 -65 -54 -13 -47 47 -82 62 -122 52 -29 -7 -88
-55 -81 -66 2 -4 25 -13 49 -20 39 -11 51 -10 86 4 36 14 44 15 69 1 27 -13
41 -33 41 -57 0 -7 -16 -8 -46 -4 -48 6 -84 -6 -84 -28 0 -19 69 -30 104 -17
38 15 62 14 80 -5 22 -22 11 -34 -29 -34 -28 0 -37 -6 -50 -30 -20 -40 -20
-40 23 -40 31 0 42 6 69 37 26 32 35 36 50 27 33 -20 28 -58 -13 -90 -21 -16
-74 -65 -118 -110 -45 -44 -93 -89 -108 -99 -26 -16 -30 -16 -53 -1 -28 18
-67 75 -62 90 2 5 18 15 37 21 49 17 48 32 -5 55 -34 14 -46 25 -43 37 3 15
17 19 75 23 57 4 75 9 87 25 21 27 20 32 -6 39 -39 10 -62 7 -101 -14 -54 -29
-60 -27 -53 23 6 36 3 46 -14 62 -11 10 -23 15 -28 11 -4 -4 -7 -38 -8 -74 -1
-120 -38 -144 -99 -66 -40 54 -40 55 -19 96 17 34 14 122 -5 141 -11 11 -61
-84 -61 -115 0 -30 -36 -21 -69 17 -17 20 -31 40 -31 45 0 5 26 30 58 55 176
140 361 242 483 268 42 9 86 28 128 55 71 47 72 47 89 30z m-5776 -35 c22 -27
28 -50 15 -61 -22 -16 -106 -44 -117 -37 -13 8 -13 56 0 89 8 22 16 26 48 26
25 0 44 -6 54 -17z m1266 -16 c18 -14 15 -25 -14 -52 -33 -31 -54 -19 -54 30
0 44 28 53 68 22z m1830 5 c48 -48 192 -308 192 -347 0 -9 -17 -32 -37 -53
-21 -20 -46 -52 -55 -69 -11 -22 -24 -33 -39 -33 -21 0 -22 3 -16 60 7 59 6
62 -27 98 l-35 37 -17 -40 c-30 -73 -29 -106 4 -148 17 -21 29 -44 26 -50 -6
-16 -162 -89 -174 -82 -6 4 -10 53 -10 109 l0 103 50 98 c50 97 50 98 50 192
0 86 2 96 25 118 29 30 39 31 63 7z m2050 -52 c23 -17 42 -35 42 -40 0 -18
-29 -23 -73 -14 -33 7 -43 14 -45 32 -9 59 16 66 76 22z m-2210 -53 c16 -15
22 -32 22 -62 0 -44 -14 -70 -68 -127 -31 -33 -34 -41 -29 -77 3 -26 1 -44 -8
-51 -15 -12 -26 0 -57 57 -55 103 -53 90 -25 131 38 55 49 90 41 138 -3 23 -3
47 1 53 7 12 82 -27 123 -62z m1574 -23 c23 -12 45 -14 89 -9 77 9 89 -1 89
-71 0 -64 -16 -103 -44 -109 -12 -2 -57 -12 -101 -22 -104 -23 -284 -26 -292
-6 -3 8 4 24 15 36 20 20 25 20 72 8 28 -7 63 -10 78 -7 44 11 82 28 82 37 0
16 -64 50 -90 48 -14 -1 -30 -1 -37 0 -20 2 -3 31 29 47 16 8 34 26 40 39 13
29 28 31 70 9z m319 -104 c10 -6 19 -20 19 -30 0 -15 -7 -20 -29 -20 -32 0
-56 22 -47 45 6 17 29 19 57 5z m1635 -18 c6 -4 31 -40 56 -81 24 -40 49 -73
54 -72 14 3 7 69 -11 94 -25 35 -19 47 25 47 32 0 43 -5 56 -27 10 -16 38 -47
63 -70 l46 -43 -25 -20 c-14 -10 -37 -29 -53 -40 -18 -14 -29 -35 -33 -59 -3
-21 -9 -43 -13 -49 -7 -11 -121 -52 -146 -52 -36 0 -10 39 49 75 15 9 40 84
31 93 -8 8 -105 -50 -129 -78 -20 -24 -26 -43 -26 -77 0 -42 -4 -49 -55 -99
-77 -76 -88 -73 -83 22 3 67 7 79 27 93 44 30 82 71 76 81 -10 17 -44 11 -76
-12 -26 -19 -31 -20 -39 -8 -23 36 -11 68 34 100 57 38 61 46 36 60 -15 8 -27
7 -50 -5 -17 -9 -35 -13 -40 -10 -15 10 -12 52 6 69 28 29 71 19 132 -28 65
-50 101 -70 110 -62 12 13 -29 76 -63 98 -40 27 -44 45 -12 58 28 11 39 12 53
2z m-643 -114 c23 -12 23 -81 -1 -127 -24 -49 -38 -49 -60 1 -11 24 -31 54
-46 67 -30 28 -32 43 -10 65 16 17 79 13 117 -6z m-956 -24 c6 -18 -64 -86
-84 -82 -52 10 0 103 54 96 15 -2 28 -8 30 -14z m1321 -5 c2 -11 -18 -33 -52
-60 -31 -24 -56 -47 -56 -51 0 -14 52 -8 81 9 37 22 64 8 64 -33 0 -29 0 -29
-67 -32 -38 -2 -68 -6 -68 -11 0 -4 13 -20 28 -34 26 -25 34 -27 71 -21 52 8
61 -1 61 -71 0 -91 -62 -168 -76 -95 -8 39 -23 34 -52 -18 -13 -23 -30 -42
-37 -42 -18 0 -35 31 -35 65 0 33 -58 95 -89 95 -16 0 -21 -6 -21 -24 0 -43
19 -77 71 -126 38 -36 50 -53 47 -71 -3 -22 -7 -24 -50 -21 -29 2 -59 -3 -77
-13 -17 -8 -52 -15 -78 -15 -34 0 -63 -9 -102 -30 -58 -32 -97 -38 -124 -17
-20 15 -107 137 -107 151 0 19 44 56 67 56 29 0 73 -42 73 -69 0 -25 20 -71
31 -71 5 0 11 16 15 35 l6 36 45 -7 c44 -6 45 -6 38 17 -16 54 -31 66 -90 71
-70 6 -85 19 -65 55 19 34 62 66 235 173 75 47 165 109 198 137 64 54 108 66
115 32z m-1931 -26 c5 -14 -33 -37 -47 -28 -15 9 9 47 27 43 9 -2 18 -8 20
-15z m413 -8 c15 -18 16 -43 5 -140 -11 -101 -25 -122 -81 -131 -37 -5 -56 -2
-90 15 -66 32 -55 70 20 71 20 0 56 27 56 41 0 4 -21 15 -46 25 -44 17 -46 17
-99 -5 -54 -22 -55 -23 -92 -4 -21 10 -38 25 -38 33 0 18 112 74 187 94 73 20
162 20 178 1z m349 0 c29 -14 45 -38 34 -49 -3 -3 -22 -3 -42 0 -31 5 -41 1
-68 -26 -18 -18 -33 -37 -33 -42 0 -12 55 -5 125 15 61 17 97 9 141 -34 44
-43 65 -88 53 -111 -14 -27 -38 -22 -49 10 -25 71 -50 81 -50 22 0 -33 7 -50
30 -77 17 -18 30 -38 30 -42 0 -26 -43 -142 -61 -165 -23 -30 -57 -34 -65 -8
-3 9 -14 35 -26 57 l-20 40 21 36 c15 26 18 42 13 64 -12 44 -29 41 -54 -9
-12 -25 -28 -46 -35 -46 -17 0 -33 33 -33 68 0 21 -9 38 -31 56 -45 38 -52 34
-47 -31 4 -41 10 -60 23 -68 40 -22 88 -72 81 -83 -4 -7 -26 -12 -50 -12 -49
0 -89 -31 -68 -52 16 -16 79 -13 100 5 47 40 92 26 92 -29 0 -95 -91 -168
-225 -181 -59 -5 -64 -4 -80 20 -14 22 -15 39 -9 109 4 46 13 100 20 122 8 21
14 63 14 93 0 117 44 225 128 315 49 53 87 62 141 33z m-1587 -180 c79 -150
178 -378 178 -409 0 -14 -11 -59 -25 -101 -13 -42 -33 -114 -44 -160 -34 -139
-108 -265 -158 -265 -34 0 -77 36 -146 123 -41 50 -138 152 -215 226 -181 173
-191 190 -189 334 l2 109 37 34 c45 40 75 43 112 9 31 -29 46 -64 46 -109 0
-28 24 -67 33 -55 2 2 18 28 36 58 40 67 36 93 -19 117 -61 27 -61 58 -1 88
32 16 47 12 86 -25 17 -15 43 -33 58 -38 34 -13 77 -14 77 -2 0 10 -40 63 -56
73 -6 4 -21 16 -34 26 -21 17 -21 19 -5 35 9 9 31 17 48 17 18 1 43 7 57 15
47 27 60 17 122 -100z m-962 37 c23 -11 35 -24 35 -37 0 -17 -8 -20 -48 -23
-32 -2 -57 2 -73 13 -23 15 -32 44 -17 58 12 13 68 7 103 -11z m1825 4 c47
-20 55 -40 48 -127 -4 -55 -2 -83 9 -103 l14 -27 19 21 c12 13 22 42 25 73 3
28 10 52 16 54 18 6 55 -53 61 -97 4 -29 0 -49 -16 -75 -25 -43 -26 -66 -5
-108 38 -75 54 -68 54 25 0 31 5 69 10 83 9 23 13 25 25 15 8 -7 15 -25 15
-41 0 -16 5 -59 12 -97 11 -69 11 -69 -25 -148 -41 -89 -71 -201 -86 -317 -8
-71 -30 -127 -49 -127 -4 0 -30 22 -57 50 -34 35 -51 46 -57 37 -13 -20 -9
-76 8 -108 29 -57 -3 -79 -47 -33 -50 54 -99 66 -162 39 -20 -8 -42 -12 -50
-9 -8 3 -32 47 -52 97 -21 51 -76 173 -123 272 -125 267 -122 250 -70 382 31
81 100 116 145 73 32 -29 37 -57 16 -86 -50 -70 -64 -120 -44 -152 7 -12 14
-11 39 2 38 19 46 32 47 71 0 25 4 30 25 30 20 0 28 -8 39 -41 13 -38 13 -45
-9 -97 -25 -59 -21 -105 7 -115 13 -4 17 3 28 51 14 66 57 -16 45 -85 -6 -33
-4 -44 15 -66 l22 -26 22 42 c30 58 27 83 -14 119 -57 51 -43 72 35 52 37 -9
53 -10 61 -2 14 14 -75 82 -107 83 -27 0 -46 17 -74 63 -27 45 -18 63 24 47
34 -13 93 -13 101 0 10 15 -35 68 -68 80 -17 5 -50 10 -74 10 -37 0 -52 7 -93
41 -29 24 -46 47 -43 55 6 17 78 57 140 78 26 9 64 25 83 36 42 23 70 25 115
6z m-1672 -144 c62 -66 96 -142 64 -142 -16 0 -157 141 -157 157 0 13 27 21
51 15 10 -2 28 -16 42 -30z m1995 -58 c23 -16 30 -48 12 -59 -23 -14 -79 42
-65 65 9 14 27 12 53 -6z m717 -30 c18 -8 36 -21 39 -29 10 -27 -72 -75 -130
-75 -22 0 -24 4 -24 44 0 73 43 95 115 60z m132 -138 c37 -42 155 -273 177
-346 9 -29 16 -84 16 -122 0 -75 -9 -82 -60 -53 -25 14 -100 21 -100 9 0 -4
16 -24 35 -45 19 -21 32 -45 29 -52 -3 -8 -22 -20 -43 -27 -70 -23 -86 -42
-85 -104 0 -70 12 -84 47 -56 17 14 33 42 43 77 19 65 52 103 89 103 30 0 30
1 8 -61 -20 -55 -16 -64 20 -48 50 23 59 8 52 -79 l-7 -78 51 -102 c72 -144
68 -174 -14 -106 -34 27 -45 44 -50 76 -8 45 -55 105 -73 94 -19 -11 -14 -55
8 -83 24 -30 12 -54 -23 -46 -73 16 -83 23 -103 71 -22 52 -66 84 -86 64 -12
-12 -5 -34 24 -74 10 -14 10 -20 0 -30 -10 -10 -19 -10 -45 1 -57 24 -108 24
-147 0 l-34 -21 27 -24 c32 -28 63 -30 114 -9 72 30 116 6 56 -32 -37 -22 -73
-55 -73 -65 0 -13 69 -9 98 6 15 8 39 30 54 49 33 42 82 57 106 34 14 -15 12
-18 -16 -34 -41 -23 -72 -93 -42 -93 21 0 86 39 114 69 39 41 64 39 109 -7 51
-53 77 -124 77 -215 -1 -102 -12 -140 -62 -204 -95 -124 -312 -323 -352 -323
-47 0 -46 197 3 288 15 28 26 28 63 -3 31 -26 78 -34 78 -12 0 22 -30 57 -71
83 -33 20 -40 30 -37 52 4 38 32 39 74 2 20 -17 43 -29 52 -26 75 20 75 22 32
63 -50 47 -38 64 41 56 38 -5 50 -1 74 19 36 31 28 55 -20 64 -28 5 -46 2 -75
-15 -21 -11 -59 -22 -86 -23 l-49 -3 3 35 c2 26 -3 41 -17 54 -19 18 -20 17
-40 -15 -23 -38 -25 -56 -11 -94 8 -20 6 -35 -6 -60 -20 -44 -45 -53 -64 -25
-47 68 -78 83 -115 57 -17 -13 -17 -15 6 -47 13 -18 43 -41 66 -51 23 -10 49
-30 59 -44 18 -28 20 -20 -25 -149 -25 -70 -26 -101 -6 -149 32 -78 6 -166
-72 -243 -60 -59 -91 -70 -157 -55 -62 14 -137 58 -162 96 -15 23 -16 32 -4
83 8 31 14 102 15 157 0 80 6 119 29 195 26 87 125 327 161 392 17 30 20 104
4 113 -23 15 -49 -27 -49 -77 0 -59 -18 -71 -61 -39 -24 18 -37 21 -78 15 -48
-6 -49 -6 -100 43 -43 42 -51 55 -51 86 0 31 4 39 26 47 38 15 40 14 109 -50
72 -67 101 -77 90 -32 -8 35 -37 64 -78 78 -41 14 -45 37 -12 70 21 21 32 25
58 20 72 -14 177 -19 177 -8 0 17 -54 42 -89 42 -39 0 -47 14 -21 40 22 22 64
26 122 10 30 -9 44 -8 67 5 16 8 32 19 36 25 7 11 -92 70 -118 70 -10 0 -42
-22 -71 -50 -68 -64 -86 -65 -86 -4 0 45 -13 84 -29 84 -16 0 -31 -52 -31
-106 0 -78 -37 -139 -72 -118 -11 7 -6 83 8 118 5 14 3 17 -7 14 -23 -8 -59
-69 -59 -101 0 -32 -24 -67 -46 -67 -19 0 -44 53 -44 93 0 50 37 98 97 127 51
25 103 66 103 82 0 14 -69 9 -101 -7 -26 -14 -30 -14 -35 0 -15 39 44 105 94
105 11 0 43 -18 71 -40 28 -22 53 -40 56 -40 12 0 3 30 -21 65 -14 21 -23 44
-20 51 12 31 49 13 116 -56 38 -38 74 -70 81 -70 16 0 4 86 -17 117 -20 32
-53 43 -129 43 -35 0 -67 5 -70 10 -4 6 5 24 19 41 20 24 26 42 26 79 0 27 -5
52 -11 56 -32 20 -109 -90 -109 -157 0 -33 -6 -43 -47 -76 -25 -21 -52 -53
-60 -71 -18 -44 -36 -36 -46 19 -13 73 -15 75 -42 49 -13 -12 -27 -35 -30 -50
-8 -36 -49 -74 -71 -66 -15 6 -16 17 -11 89 9 121 38 205 92 265 57 63 115 92
183 92 65 0 91 10 161 64 71 54 84 59 125 42 52 -22 52 -50 2 -105 -90 -98
-106 -131 -62 -131 49 0 77 19 97 65 11 25 24 45 29 45 13 0 40 -55 40 -81 0
-12 -13 -46 -30 -76 -16 -29 -30 -60 -30 -68 0 -24 28 -17 62 15 25 24 34 28
45 18 16 -13 14 -58 -5 -114 -8 -25 -5 -41 13 -85 l23 -54 12 30 c7 17 16 41
21 54 7 19 4 40 -12 87 -31 88 -10 130 31 61 20 -34 65 -66 76 -54 13 12 -9
91 -32 114 -17 17 -34 23 -66 23 -54 0 -63 7 -83 53 -17 42 -19 73 -5 82 12 8
60 -17 84 -44 25 -27 36 -27 36 2 0 35 -55 95 -98 107 -39 10 -99 63 -102 90
-5 34 4 40 83 65 46 14 92 32 103 40 31 23 60 18 91 -19z m521 -82 c20 -9 65
-20 100 -24 75 -10 142 -48 142 -81 0 -19 -4 -21 -35 -16 -29 5 -42 0 -77 -27
-24 -17 -44 -40 -46 -49 -3 -15 6 -17 59 -17 57 0 66 3 94 30 40 38 61 32 76
-24 17 -62 6 -157 -26 -222 -27 -54 -191 -234 -214 -234 -5 0 -27 33 -48 73
-22 39 -46 82 -54 94 -12 20 -11 27 5 57 13 24 17 45 12 66 -8 42 -36 100 -48
100 -14 0 -38 -65 -38 -103 0 -18 -6 -41 -13 -51 -13 -17 -15 -17 -53 1 -33
15 -40 25 -47 58 -5 22 -22 81 -38 132 -28 87 -37 175 -21 199 15 23 59 37
137 44 44 4 84 8 88 9 4 0 24 -6 45 -15z m-2227 -309 c21 -49 39 -100 39 -112
0 -13 14 -67 32 -120 31 -97 31 -100 31 -308 0 -244 -5 -267 -72 -285 -27 -7
-47 -7 -67 0 -44 17 -149 107 -172 148 -67 121 -48 363 39 501 16 25 29 53 29
62 0 25 50 181 63 197 21 26 41 5 78 -83z m-1725 -1 c-9 -77 -20 -94 -60 -94
-19 0 -49 -7 -68 -15 -42 -17 -58 -6 -58 40 0 43 41 80 115 104 33 10 64 19
69 20 5 1 6 -24 2 -55z m3831 -170 c7 -10 8 -25 3 -42 -15 -47 -19 -122 -6
-122 19 1 45 25 55 53 16 41 37 33 71 -25 25 -45 30 -63 30 -124 0 -40 -7 -91
-16 -115 -10 -29 -17 -93 -20 -184 -6 -163 -9 -185 -29 -185 -15 0 -16 3 -35
110 -7 36 -27 103 -45 150 -64 165 -76 218 -82 352 -7 149 -4 163 35 154 15
-4 32 -14 39 -22z m-1726 -163 c37 -17 50 -18 85 -9 87 24 104 -13 39 -83 -41
-44 -46 -53 -32 -61 23 -12 21 -40 -4 -72 -37 -47 -55 -35 -104 65 -51 106
-65 157 -44 170 8 5 15 9 15 9 1 0 21 -9 45 -19z m561 -12 c17 -23 17 -27 2
-79 -9 -30 -19 -59 -23 -63 -13 -13 -61 15 -67 39 -11 43 33 140 60 131 5 -2
18 -14 28 -28z m-194 -147 c3 -16 -11 -39 -47 -78 -28 -31 -49 -60 -45 -65 3
-5 27 -9 53 -9 56 0 71 13 86 74 19 72 71 52 128 -48 69 -119 116 -187 168
-244 33 -34 68 -80 79 -102 24 -47 26 -114 4 -165 -8 -21 -20 -63 -25 -93 -4
-31 -13 -60 -18 -65 -12 -12 -86 7 -96 23 -3 5 6 30 20 54 27 47 32 115 9 123
-19 6 -72 -46 -79 -77 -7 -34 -17 -42 -38 -35 -16 7 -57 76 -57 98 0 8 21 27
46 42 54 32 76 74 67 129 -3 20 -10 39 -16 43 -18 11 -77 -63 -77 -97 0 -33
-24 -50 -43 -31 -6 6 -11 40 -12 75 0 57 -3 67 -35 104 -19 22 -40 41 -46 41
-16 1 -34 -44 -34 -86 0 -28 8 -42 39 -72 71 -65 73 -132 2 -82 -31 22 -95 28
-121 11 -24 -16 39 -66 107 -86 67 -19 88 -35 115 -88 23 -44 12 -61 -30 -45
-26 10 -102 -5 -102 -21 0 -13 60 -47 97 -55 18 -3 49 -1 68 5 31 10 42 8 91
-14 31 -14 66 -26 78 -26 44 0 60 -23 59 -82 -2 -90 -43 -161 -118 -208 -43
-26 -183 -60 -249 -60 -105 0 -146 36 -197 170 -33 86 -42 655 -13 794 13 62
85 225 117 264 17 21 61 11 65 -16z m507 -395 c42 -24 56 -57 35 -83 -18 -21
-39 -17 -49 9 -5 12 -21 33 -35 46 -53 50 -21 68 49 28z m1287 -18 c11 -6 31
-35 44 -65 19 -42 31 -57 60 -69 36 -15 36 -15 29 -62 -8 -53 -20 -66 -50 -56
-11 4 -78 8 -150 8 -230 1 -255 3 -255 21 0 25 98 132 148 162 38 22 138 70
150 72 2 0 12 -5 24 -11z m-3133 -94 c39 -29 53 -46 71 -94 33 -88 27 -91 -87
-49 -45 17 -53 23 -53 45 0 14 -5 43 -11 64 -9 30 -9 42 1 54 18 21 24 20 79
-20z m450 -131 c47 -53 80 -106 106 -170 21 -52 22 -60 9 -96 -10 -30 -11 -50
-2 -91 6 -29 10 -80 9 -115 -1 -34 3 -79 9 -98 17 -49 3 -61 -44 -39 -78 37
-146 159 -197 350 -16 61 -31 120 -35 131 -13 48 42 41 70 -8 22 -39 56 -78
68 -78 4 0 8 18 8 40 0 56 -34 119 -71 132 -35 12 -38 40 -7 62 32 23 42 20
77 -20z m1897 -503 c18 -35 8 -50 -55 -77 -91 -41 -101 -30 -39 44 55 66 75
73 94 33z m-1601 -1151 c9 -28 -14 -323 -26 -335 -6 -6 -16 -6 -27 1 -12 8
-20 32 -25 80 -13 104 -9 162 15 208 35 70 52 82 63 46z m969 -1392 c8 -13 19
-48 25 -80 5 -31 17 -73 25 -93 9 -20 18 -58 22 -85 6 -42 4 -51 -11 -56 -13
-5 -26 2 -46 24 -16 18 -30 32 -31 32 -2 0 -2 -24 0 -52 4 -63 -16 -131 -40
-136 -31 -6 -108 180 -108 263 0 16 12 41 30 62 19 21 30 45 30 64 0 69 71
108 104 57z m210 -103 c4 -11 13 -14 32 -9 17 4 29 2 35 -7 18 -29 8 -53 -41
-98 -30 -29 -54 -61 -62 -86 -15 -46 -42 -58 -52 -23 -14 55 -6 138 19 188 26
51 57 66 69 35z m-1537 -191 c51 -20 56 -44 21 -114 -20 -38 -27 -45 -50 -42
-18 2 -32 -5 -46 -23 -36 -46 -52 -33 -52 41 0 68 8 93 43 132 24 26 29 27 84
6z m-7153 -200 c9 -3 32 -28 51 -54 34 -46 35 -51 35 -134 0 -80 -1 -86 -20
-86 -22 0 -25 5 -35 65 -5 32 -9 36 -16 22 -7 -11 -22 -17 -45 -17 -31 0 -37
4 -50 35 -7 19 -14 52 -14 74 0 32 6 44 35 70 40 34 37 33 59 25z m6776 -64
c35 -70 39 -110 11 -110 -10 0 -24 7 -32 16 -11 14 -15 13 -30 -8 -17 -21 -19
-22 -34 -7 -22 22 -30 89 -15 133 10 30 16 36 41 36 25 0 32 -7 59 -60z
m-1090 -48 c0 -35 -26 -72 -50 -72 -30 0 -31 13 -4 58 29 49 54 55 54 14z"/>
<path d="M9801 2775 c-1 -11 -12 -44 -26 -73 -26 -57 -32 -113 -15 -156 5 -14
15 -26 22 -26 17 0 53 57 68 108 12 37 10 45 -18 104 -18 37 -31 55 -31 43z"/>
</g>
</svg>
