<?xml version="1.0" encoding="utf-8"?>
<!-- Generator: Adobe Illustrator 22.0.1, SVG Export Plug-In . SVG Version: 6.00 Build 0)  -->
<svg version="1.1" id="Layer_2" xmlns="http://www.w3.org/2000/svg" xmlns:xlink="http://www.w3.org/1999/xlink" x="0px" y="0px"
	 viewBox="0 0 219.7 271.2" style="enable-background:new 0 0 219.7 271.2;" xml:space="preserve">
<style type="text/css">
	.st0{fill:none;stroke:#15812E;stroke-width:3;stroke-linecap:round;stroke-miterlimit:10;}
	.st1{fill:none;stroke:#0F4F1B;stroke-width:3;stroke-linecap:round;stroke-miterlimit:10;}
	.st2{fill:none;stroke:#0B601B;stroke-width:3;stroke-linecap:round;stroke-miterlimit:10;}
	.st3{fill:#FFF203;}
	.st4{fill:none;stroke:#000000;stroke-linecap:round;stroke-miterlimit:10;}
	.st5{fill:none;stroke:#FFF203;stroke-width:6;stroke-linecap:round;stroke-miterlimit:10;}
	.st6{fill:none;stroke:#FFF203;stroke-width:10;stroke-linecap:round;stroke-miterlimit:10;}
	.st7{fill:none;stroke:#FFF203;stroke-width:7;stroke-linecap:round;stroke-miterlimit:10;}
	.st8{fill:none;stroke:#020202;stroke-width:0.5;stroke-linecap:round;stroke-miterlimit:10;}
	.st9{fill:none;stroke:#000000;stroke-width:0.25;stroke-linecap:round;stroke-miterlimit:10;}
	.st10{fill:none;stroke:#FFF203;stroke-width:9;stroke-linecap:round;stroke-miterlimit:10;}
	.st11{fill:none;stroke:#FFF203;stroke-width:4;stroke-linecap:round;stroke-miterlimit:10;}
</style>
<path id="stem" class="st0" d="M97.8,252.3c0,0,17-36,12-130"/>
<path id="leaf1" class="st1" d="M99.8,252.3c0,0,23-44,103-83c0,0-19,13-11,37c0,0-26-16-35,23c0,0-6-27-28,13c0,0-26-6-28,8
	c0,0,21-31,22-45c0,0,15,13,25-32c0,0,14,19,25-19c0,0,5,16,31,14"/>
<path id="leaf2" class="st2" d="M97.8,246.3c0,0-8-9-17.1-18.4c-9.3-9.6-19.8-19.6-23.9-20.6c-8-2-42-42-42-42s10,17,33,11
	c0,0,3,23,17,25c0,0,0,9,6,13c0,0,7,4,10,12c0,0,1,3-7,1c0,0-7-16-27-15c0,0,5-12-26-16c0,0,7-11-7-32"/>
<g>
	<g>
		<path class="st3" d="M94.6,80.2c0.2,0-1.1,0.1-0.5,0.1C94.3,80.3,94.5,80.3,94.6,80.2c0.3,0,0.5,0,0.8,0c0.9,0-0.6-0.2,0.2,0
			c0.1,0,0.3,0.1,0.4,0.1c0.6,0.1-0.5-0.3-0.1-0.1c0,0,0.4,0.2,0.4,0.2c-0.1,0.1-0.6-0.6-0.2-0.1c-0.6-0.8-0.2-0.3-0.1-0.1
			c-0.4-0.9-0.1-0.3-0.1-0.1c0.1,0.6,0-0.6,0,0c-0.1,0.9,0.1-0.3,0,0.3c-0.3,1.5,0.4,3.3,2.1,3.7c1.5,0.3,3.4-0.4,3.7-2.1
			c0.3-1.7,0.3-3.3-0.6-4.9c-0.7-1.3-2-2.1-3.4-2.6c-1.5-0.5-3.2-0.5-4.7-0.2c-1.6,0.3-2.5,2.2-2.1,3.7C91.4,79.8,93,80.5,94.6,80.2
			L94.6,80.2z"/>
	</g>
</g>
<path class="st4" d="M95.8,77.3c0,0,2-1,2,1"/>
<path class="st5" d="M111.9,82.1c0,0,5.9-5.8,11-1"/>
<path class="st4" d="M112.3,80.8c0,0,6-2,8,1"/>
<path class="st6" d="M86.8,90.3c0,0-5,5-5,10"/>
<path class="st4" d="M85.8,92.3c0,0-2,1-3,7"/>
<path class="st7" d="M104.8,93.3c0,0,3,6,6,8"/>
<path class="st8" d="M106.3,94.8c0,0,4,3,4,5"/>
<path class="st5" d="M68.3,75.8c0,0,9,3,11,1"/>
<path class="st9" d="M70.8,76.3c3.8-1.2,6.7-0.7,8.5,1.5"/>
<path class="st6" d="M102.8,65.3c0,0-1-11,2-11"/>
<path class="st4" d="M102.3,62.8c0,0-2-6,2-7"/>
<path class="st10" d="M81.8,57.3c0,0-5-5-6-10"/>
<path class="st10" d="M128.8,63.3c0,0,9,5,9-2"/>
<path class="st10" d="M115.8,25.3c0,0-2,9-4,9"/>
<path class="st10" d="M51.8,55.3c0,0,7,2,8,7"/>
<path class="st10" d="M71.8,106.3c0,0-3,4-3,7"/>
<path class="st10" d="M93.8,119.3c0,0-1-12,1-13"/>
<path class="st10" d="M133.8,77.3c0,0,14,3,13-1"/>
<path class="st10" d="M60.8,31.3c0,0,7,8,5,10"/>
<path class="st10" d="M120.8,47.3c0,0,5-10,10-8"/>
<path class="st10" d="M94.8,33.3c0,0,1-8-2-10"/>
<path class="st10" d="M126.8,94.3c0,0,7-2,7,3"/>
<path class="st10" d="M126.8,103.3c0,0-3,7,5,8"/>
<path class="st5" d="M65.8,91.3c0,0-4,9-11,7"/>
<path class="st11" d="M43.3,79.8c0,0,9,2,9,0"/>
<path class="st4" d="M81.3,54.8c0,0-1-6-4-7"/>
<path class="st4" d="M120.8,46.3c0,0,3-5,6-6"/>
<path class="st4" d="M93.8,108.3c0,0-1,7,0,8"/>
<path class="st4" d="M129.8,94.3c0,0,5,0,4,2"/>
<path class="st4" d="M63.8,93.3c0,0-7,5-7,4"/>
<path class="st4" d="M131.8,64.3c0,0,8,2,6,0"/>
<path class="st4" d="M63.8,36.3c0,0,1,2,1,3"/>
<path class="st4" d="M113.8,28.3c0,0-3,3-2,4"/>
<line class="st4" x1="45.8" y1="80.3" x2="48.8" y2="80.3"/>
<path class="st4" d="M130.2,111.3c-1.5-0.5-2.5-1.5-2.9-3.1"/>
<path class="st4" d="M69.8,108.3c0,0-2,2-1,3"/>
<path class="st4" d="M93.8,27.3c0,0,2,4,0,5"/>
<path class="st4" d="M54.8,56.3c0,0,5,2,6,5"/>
<path class="st4" d="M135.8,76.3c0,0,5,1,6,0"/>
</svg>
