<?xml version="1.0" encoding="utf-8"?>
<!-- Generator: Adobe Illustrator 22.0.1, SVG Export Plug-In . SVG Version: 6.00 Build 0)  -->
<svg version="1.1" id="Layer_2" xmlns="http://www.w3.org/2000/svg" xmlns:xlink="http://www.w3.org/1999/xlink" x="0px" y="0px"
	 viewBox="0 0 300 300" style="enable-background:new 0 0 300 300;" xml:space="preserve">
<style type="text/css">
	.st0{fill:url(#seed_1_);}
	.st1{fill:none;stroke:#000000;stroke-width:0.75;stroke-linecap:round;stroke-miterlimit:10;}
	.st2{fill:none;stroke:url(#SVGID_1_);stroke-width:0.75;stroke-linecap:round;stroke-miterlimit:10;}
	.st3{fill:none;stroke:#9B9B9B;stroke-width:0.75;stroke-linecap:round;stroke-miterlimit:10;}
	.st4{fill:none;stroke:url(#SVGID_2_);stroke-width:0.75;stroke-linecap:round;stroke-miterlimit:10;}
	.st5{fill:none;stroke:url(#SVGID_3_);stroke-width:0.75;stroke-linecap:round;stroke-miterlimit:10;}
	.st6{fill:none;stroke:url(#SVGID_4_);stroke-width:0.75;stroke-linecap:round;stroke-miterlimit:10;}
	.st7{fill:none;stroke:url(#SVGID_5_);stroke-width:0.75;stroke-linecap:round;stroke-miterlimit:10;}
	.st8{fill:none;stroke:url(#SVGID_6_);stroke-width:0.75;stroke-linecap:round;stroke-miterlimit:10;}
	.st9{fill:none;stroke:url(#SVGID_7_);stroke-width:0.75;stroke-linecap:round;stroke-miterlimit:10;}
	.st10{fill:none;stroke:url(#SVGID_8_);stroke-width:0.75;stroke-linecap:round;stroke-miterlimit:10;}
	.st11{fill:none;stroke:url(#SVGID_9_);stroke-width:0.75;stroke-linecap:round;stroke-miterlimit:10;}
	.st12{fill:none;stroke:url(#SVGID_10_);stroke-width:0.75;stroke-linecap:round;stroke-miterlimit:10;}
	.st13{fill:none;stroke:url(#SVGID_11_);stroke-width:0.75;stroke-linecap:round;stroke-miterlimit:10;}
	.st14{fill:none;stroke:url(#SVGID_12_);stroke-width:0.75;stroke-linecap:round;stroke-miterlimit:10;}
	.st15{fill:none;stroke:url(#SVGID_13_);stroke-width:0.75;stroke-linecap:round;stroke-miterlimit:10;}
</style>
<linearGradient id="seed_1_" gradientUnits="userSpaceOnUse" x1="169.3767" y1="253.5" x2="190.5" y2="253.5">
	<stop  offset="0" style="stop-color:#333333"/>
	<stop  offset="0.9514" style="stop-color:#333333"/>
</linearGradient>
<path id="seed" class="st0" d="M190.5,268.5c0,0-23-11-21-30C169.5,238.5,183.5,238.5,190.5,268.5z"/>
<path id="line" class="st1" d="M134.5,133.5c0,0,1,54,35,105"/>
<linearGradient id="SVGID_1_" gradientUnits="userSpaceOnUse" x1="110.125" y1="150.3842" x2="134.8695" y2="150.3842">
	<stop  offset="0" style="stop-color:#E6E6E6"/>
	<stop  offset="0.245" style="stop-color:#E3E3E3"/>
	<stop  offset="0.3902" style="stop-color:#DBDBDB"/>
	<stop  offset="0.5093" style="stop-color:#CDCDCD"/>
	<stop  offset="0.6144" style="stop-color:#B9B9B9"/>
	<stop  offset="0.7101" style="stop-color:#9F9F9F"/>
	<stop  offset="0.7992" style="stop-color:#7F7F7F"/>
	<stop  offset="0.8814" style="stop-color:#595959"/>
	<stop  offset="0.9514" style="stop-color:#333333"/>
</linearGradient>
<path class="st2" d="M110.5,166.5c0,0,20-19,24-32.5c-2,11.5-14,30.5-14,30.5"/>
<path class="st3" d="M115.5,155.5c0,0,10.7-7.1,18.9-21.1"/>
<linearGradient id="SVGID_2_" gradientUnits="userSpaceOnUse" x1="88.125" y1="147" x2="134.875" y2="147">
	<stop  offset="0.3027" style="stop-color:#F6F6F6"/>
	<stop  offset="0.8216" style="stop-color:#989898"/>
</linearGradient>
<path class="st4" d="M88.5,160.5c0,0,19-4,46-27"/>
<path class="st3" d="M76.5,150.5"/>
<path class="st3" d="M134.5,133.5c-19,12-58,17-58,17"/>
<linearGradient id="SVGID_3_" gradientUnits="userSpaceOnUse" x1="60.125" y1="129.3124" x2="134.2856" y2="129.3124">
	<stop  offset="0" style="stop-color:#E6E6E6"/>
	<stop  offset="0.245" style="stop-color:#E3E3E3"/>
	<stop  offset="0.3902" style="stop-color:#DBDBDB"/>
	<stop  offset="0.5093" style="stop-color:#CDCDCD"/>
	<stop  offset="0.6144" style="stop-color:#B9B9B9"/>
	<stop  offset="0.7101" style="stop-color:#9F9F9F"/>
	<stop  offset="0.7992" style="stop-color:#7F7F7F"/>
	<stop  offset="0.8814" style="stop-color:#595959"/>
	<stop  offset="0.9514" style="stop-color:#333333"/>
</linearGradient>
<path class="st5" d="M60.5,122.5c0,0,19,12,34,13s26.8,1,39.4-1.5"/>
<linearGradient id="SVGID_4_" gradientUnits="userSpaceOnUse" x1="49.125" y1="120.5" x2="135.4273" y2="120.5">
	<stop  offset="3.783784e-02" style="stop-color:#808080"/>
	<stop  offset="0.3178" style="stop-color:#4A4A4A"/>
	<stop  offset="0.533" style="stop-color:#272727"/>
	<stop  offset="0.6486" style="stop-color:#1A1A1A"/>
</linearGradient>
<path class="st6" d="M49.5,99.5c0,0,33,33,85,34c5,0.1-25,8-47,8s-32-8-32-8"/>
<linearGradient id="SVGID_5_" gradientUnits="userSpaceOnUse" x1="61.125" y1="110.5" x2="133.875" y2="110.5">
	<stop  offset="0.4919" style="stop-color:#E6E6E6"/>
	<stop  offset="0.5484" style="stop-color:#E6E6E6"/>
	<stop  offset="0.8919" style="stop-color:#E6E6E6"/>
</linearGradient>
<path class="st7" d="M133.5,132.5c-48-5-72-44-72-44"/>
<path class="st3" d="M134.5,133.5c-31-7-50-39-50-39"/>
<linearGradient id="SVGID_6_" gradientUnits="userSpaceOnUse" x1="92.125" y1="111.9101" x2="134.2856" y2="111.9101">
	<stop  offset="0" style="stop-color:#CCCCCC"/>
	<stop  offset="4.378984e-03" style="stop-color:#CDCDCD"/>
	<stop  offset="0.1116" style="stop-color:#DEDEDE"/>
	<stop  offset="0.2445" style="stop-color:#E9E9E9"/>
	<stop  offset="0.4317" style="stop-color:#F0F0F0"/>
	<stop  offset="0.9514" style="stop-color:#F2F2F2"/>
</linearGradient>
<path class="st8" d="M92.5,90.5c0,0,24.8,41.6,41.4,42.8"/>
<linearGradient id="SVGID_7_" gradientUnits="userSpaceOnUse" x1="97.125" y1="103" x2="134.875" y2="103">
	<stop  offset="0.4919" style="stop-color:#E6E6E6"/>
	<stop  offset="0.5484" style="stop-color:#E6E6E6"/>
	<stop  offset="0.8919" style="stop-color:#E6E6E6"/>
</linearGradient>
<path class="st9" d="M97.5,72.5c0,0,7,40,37,61"/>
<path class="st3" d="M134.5,133.5c-23-24-28-68-28-68"/>
<linearGradient id="SVGID_8_" gradientUnits="userSpaceOnUse" x1="121.125" y1="112" x2="133.875" y2="112">
	<stop  offset="0" style="stop-color:#E6E6E6"/>
	<stop  offset="0.245" style="stop-color:#E3E3E3"/>
	<stop  offset="0.3902" style="stop-color:#DBDBDB"/>
	<stop  offset="0.5093" style="stop-color:#CDCDCD"/>
	<stop  offset="0.6144" style="stop-color:#B9B9B9"/>
	<stop  offset="0.7101" style="stop-color:#9F9F9F"/>
	<stop  offset="0.7992" style="stop-color:#7F7F7F"/>
	<stop  offset="0.8814" style="stop-color:#595959"/>
	<stop  offset="0.9514" style="stop-color:#333333"/>
</linearGradient>
<path class="st10" d="M133.5,133.5c-9-18-12-43-12-43"/>
<line class="st3" x1="130.5" y1="81.5" x2="134.5" y2="131.5"/>
<path class="st3" d="M134.5,133.5c8-17,6-65,6-65"/>
<linearGradient id="SVGID_9_" gradientUnits="userSpaceOnUse" x1="135.125" y1="94.5" x2="152.6224" y2="94.5">
	<stop  offset="0.2649" style="stop-color:#1A1A1A"/>
	<stop  offset="0.4332" style="stop-color:#1C1C1C"/>
	<stop  offset="0.4938" style="stop-color:#232323"/>
	<stop  offset="0.537" style="stop-color:#2E2E2E"/>
	<stop  offset="0.5719" style="stop-color:#3F3F3F"/>
	<stop  offset="0.6018" style="stop-color:#555555"/>
	<stop  offset="0.6278" style="stop-color:#707070"/>
	<stop  offset="0.6405" style="stop-color:#808080"/>
	<stop  offset="0.7689" style="stop-color:#828282"/>
	<stop  offset="0.8151" style="stop-color:#898989"/>
	<stop  offset="0.848" style="stop-color:#949494"/>
	<stop  offset="0.8747" style="stop-color:#A5A5A5"/>
	<stop  offset="0.8975" style="stop-color:#BBBBBB"/>
	<stop  offset="0.9173" style="stop-color:#D6D6D6"/>
	<stop  offset="0.927" style="stop-color:#E6E6E6"/>
</linearGradient>
<path class="st11" d="M135.5,132.5c22-38,16-76,16-76"/>
<path class="st3" d="M168.5,66.5c0,0-18.2,60-34.6,66"/>
<linearGradient id="SVGID_10_" gradientUnits="userSpaceOnUse" x1="134.125" y1="104.5" x2="177.875" y2="104.5">
	<stop  offset="0" style="stop-color:#CCCCCC"/>
	<stop  offset="4.378984e-03" style="stop-color:#CDCDCD"/>
	<stop  offset="0.1116" style="stop-color:#DEDEDE"/>
	<stop  offset="0.2445" style="stop-color:#E9E9E9"/>
	<stop  offset="0.4317" style="stop-color:#F0F0F0"/>
	<stop  offset="0.9514" style="stop-color:#F2F2F2"/>
</linearGradient>
<path class="st12" d="M177.5,76.5c0,0-26,50-43,56"/>
<path class="st3" d="M177.5,95.5c0,0-34,39-43,37"/>
<path class="st3" d="M134.5,134c5,22.5,12,25.5,12,25.5"/>
<path class="st3" d="M151.5,157.5c0,0-15.3-16-16.2-20"/>
<path class="st3" d="M158.5,153.5c0,0-15.3-4.8-23.2-17.4"/>
<path class="st3" d="M177.5,155.5c0,0-39-11-42-21"/>
<path class="st3" d="M184.5,150.5c0,0-31-4-49-17"/>
<linearGradient id="SVGID_11_" gradientUnits="userSpaceOnUse" x1="136.125" y1="137" x2="184.875" y2="137">
	<stop  offset="0.2649" style="stop-color:#1A1A1A"/>
	<stop  offset="0.4332" style="stop-color:#1C1C1C"/>
	<stop  offset="0.4938" style="stop-color:#232323"/>
	<stop  offset="0.537" style="stop-color:#2E2E2E"/>
	<stop  offset="0.5719" style="stop-color:#3F3F3F"/>
	<stop  offset="0.6018" style="stop-color:#555555"/>
	<stop  offset="0.6278" style="stop-color:#707070"/>
	<stop  offset="0.6405" style="stop-color:#808080"/>
	<stop  offset="0.7689" style="stop-color:#828282"/>
	<stop  offset="0.8151" style="stop-color:#898989"/>
	<stop  offset="0.848" style="stop-color:#949494"/>
	<stop  offset="0.8747" style="stop-color:#A5A5A5"/>
	<stop  offset="0.8975" style="stop-color:#BBBBBB"/>
	<stop  offset="0.9173" style="stop-color:#D6D6D6"/>
	<stop  offset="0.927" style="stop-color:#E6E6E6"/>
</linearGradient>
<path class="st13" d="M184.5,140.5c0,0-39-2-48-7"/>
<path class="st3" d="M191.5,130.5c0,0-40.9,9-59.5,2.5"/>
<linearGradient id="SVGID_12_" gradientUnits="userSpaceOnUse" x1="135.125" y1="119.0494" x2="223.875" y2="119.0494">
	<stop  offset="0" style="stop-color:#989898"/>
	<stop  offset="0.3016" style="stop-color:#969696"/>
	<stop  offset="0.4102" style="stop-color:#8F8F8F"/>
	<stop  offset="0.4876" style="stop-color:#848484"/>
	<stop  offset="0.5502" style="stop-color:#737373"/>
	<stop  offset="0.6032" style="stop-color:#5E5E5D"/>
	<stop  offset="0.6206" style="stop-color:#555554"/>
	<stop  offset="0.6598" style="stop-color:#5D5D5C"/>
	<stop  offset="0.7199" style="stop-color:#727271"/>
	<stop  offset="0.7934" style="stop-color:#959594"/>
	<stop  offset="0.8766" style="stop-color:#C4C4C4"/>
	<stop  offset="0.9523" style="stop-color:#F6F6F6"/>
</linearGradient>
<path class="st14" d="M135.5,132.5c39,2,88-27,88-27"/>
<path class="st3" d="M134.5,133.5c20,2,59-26,59-26"/>
<linearGradient id="SVGID_13_" gradientUnits="userSpaceOnUse" x1="140.125" y1="109" x2="194.875" y2="109">
	<stop  offset="0.4919" style="stop-color:#E6E6E6"/>
	<stop  offset="0.5484" style="stop-color:#E6E6E6"/>
	<stop  offset="0.8919" style="stop-color:#E6E6E6"/>
</linearGradient>
<path class="st15" d="M194.5,86.5c0,0-40,45-54,45"/>
</svg>
